<?xml version="1.0" encoding="UTF-8"?>
<svg xmlns="http://www.w3.org/2000/svg" version="1.1" xmlns:xlink="http://www.w3.org/1999/xlink" viewBox="0 0 250 160">
  <defs>
    <style>
      .cls-1 {
        fill: url(#Degradado_sin_nombre_36);
      }

      .cls-2 {
        fill: #1a332d;
      }

      .cls-3, .cls-4 {
        fill: #ffb250;
      }

      .cls-5 {
        fill: url(#Degradado_sin_nombre_3);
        mix-blend-mode: soft-light;
        opacity: .3;
      }

      .cls-6 {
        fill: #00221e;
      }

      .cls-7 {
        opacity: .5;
      }

      .cls-7, .cls-8 {
        fill: #fff;
      }

      .cls-8 {
        opacity: .2;
      }

      .cls-9 {
        isolation: isolate;
      }

      .cls-10 {
        fill: #33281e;
      }

      .cls-11 {
        fill: #762c00;
        opacity: .4;
      }

      .cls-12 {
        opacity: .1;
      }

      .cls-12, .cls-13 {
        fill: #1a4c40;
      }

      .cls-12, .cls-4 {
        mix-blend-mode: multiply;
      }

      .cls-14 {
        fill: #161e1d;
      }
    </style>
    <radialGradient id="Degradado_sin_nombre_3" data-name="Degradado sin nombre 3" cx="100.7" cy="126.5" fx="100.7" fy="126.5" r="38.7" gradientTransform="translate(0 115.2) scale(1 0)" gradientUnits="userSpaceOnUse">
      <stop offset=".1" stop-color="#fff9c0"/>
      <stop offset=".2" stop-color="#fff9c1" stop-opacity="1"/>
      <stop offset=".2" stop-color="#fff9c6" stop-opacity=".9"/>
      <stop offset=".3" stop-color="#ffface" stop-opacity=".8"/>
      <stop offset=".3" stop-color="#fffbd9" stop-opacity=".6"/>
      <stop offset=".4" stop-color="#fffce7" stop-opacity=".4"/>
      <stop offset=".5" stop-color="#fffef8" stop-opacity="0"/>
      <stop offset=".5" stop-color="#fff" stop-opacity="0"/>
    </radialGradient>
    <radialGradient id="Degradado_sin_nombre_36" data-name="Degradado sin nombre 36" cx="102.5" cy="121.7" fx="102.5" fy="121.7" r="49" gradientUnits="userSpaceOnUse">
      <stop offset="0" stop-color="#fff9c0" stop-opacity=".4"/>
      <stop offset="0" stop-color="#fffbda" stop-opacity=".2"/>
      <stop offset=".1" stop-color="#fffdee" stop-opacity=".1"/>
      <stop offset=".2" stop-color="#fffefa" stop-opacity="0"/>
      <stop offset=".2" stop-color="#fff" stop-opacity="0"/>
    </radialGradient>
  </defs>
  <!-- Generator: Adobe Illustrator 28.7.1, SVG Export Plug-In . SVG Version: 1.2.0 Build 142)  -->
  <g class="cls-9">
    <g id="Layer_2">
      <g>
        <g>
          <polygon class="cls-13" points="6.3 115.4 23.4 84 61.8 84 83.6 117.6 41.2 120.2 6.3 115.4"/>
          <path class="cls-12" d="M6.3,115.4l18-21c.9-1.1,2.6-.3,2.4,1.1l-1.9,13.4c-.2,1.1,1.1,1.8,2,1.2l34.4-25.1,19.6,32.8-39.6,2.5-34.9-4.8Z"/>
        </g>
        <g>
          <polygon class="cls-2" points="61.8 84 83.6 117.6 71.4 118.3 61.8 84"/>
          <polygon class="cls-2" points="61.8 84 56.4 119.3 41.2 120.2 61.8 84"/>
          <polygon class="cls-6" points="61.8 84 71.4 118.3 61.8 117.3 56.7 117.6 61.8 84"/>
          <polygon class="cls-14" points="61.8 84 61.8 117.3 56.7 117.6 61.8 84"/>
        </g>
      </g>
      <g>
        <path class="cls-5" d="M123.7,125.8c0,1.3-10.2,2.4-22.7,2.4s-22.7-1.1-22.7-2.4,10.2-2.4,22.7-2.4,22.7,1.1,22.7,2.4Z"/>
        <path class="cls-3" d="M96,123.7c-.1-.4,0-.9.2-1.3.8-1.7,1.8-3.1,2.9-4.6-.4.6,1.5.2,1.8,0,.4-.3,1.3-1.6,1.3-2.1,0-.2,0-.4,0-.6,0-.3.3-.4.5-.6.8-.7,1.6-1.3,2.5-1.9-.4,1.2-.8,2.6-.2,3.7.4.7,1.3,1.4,1,2.2-.1.3-.4.7-.1.9.2.1.4,0,.6,0,0,0,0,.1.1.2.4,1.3.2,2.9-.5,4.1-1.8,3-8.8,3.9-10.1,0Z"/>
        <path class="cls-1" d="M92.3,122.6c-.3-.7,0-1.5.4-2.2,1.4-2.8,3.2-5.2,5.3-7.6-.8.9,2.8.4,3.2.1.7-.4,2.4-2.7,2.4-3.5,0-.3,0-.7,0-1,.1-.4.5-.7.8-1,1.4-1.2,2.9-2.2,4.5-3.2-.8,2-1.5,4.3-.3,6.2.8,1.2,2.4,2.3,1.8,3.6-.2.5-.7,1.2-.2,1.5.3.2.8,0,1.1.2.1,0,.2.2.2.4.8,2.2.4,4.7-.9,6.7-3.3,5-16,6.4-18.4-.1Z"/>
        <path class="cls-4" d="M97.6,124.3c-.2-.1-.4-.3-.5-.5-.1-.3,0-.6.2-.9.5-.9,1.1-1.8,1.8-2.7,0,0,0-.1.2-.1.1,0,.2,0,.3,0,.4.2.9.5,1.3.7,0,0,.2.1.3.1.1,0,.2,0,.3-.2.9-.7,1.5-1.8,1.6-2.9.2.6.3,1.3.5,1.9,0,.1,0,.3.2.3,0,0,.2,0,.3,0,.4,0,.8,0,1.2,0,0,.7-.1,1.4-.2,2.1,0,.2,0,.5-.2.6-.1.2-.3.3-.5.5-.8.6-1.7,1.1-2.6,1.5-1.6.6-2.7.3-4.1-.6Z"/>
        <path class="cls-11" d="M93.1,122.9c.4.2.6.6.9,1,.4-.2.9,0,1.2-.3.1,0,.2-.2.3-.4.5-.6,1.6-.5,2.1.1.1.2.3.4.5.6.1,0,.3,0,.5.1.4.1.6.6.5.9.2,0,.5,0,.7.1,0-.3.2-.6.4-.8.3-.4.8-.6,1.2-.3.5-.2,1.1-.4,1.6-.7.2,0,.5-.2.7,0,.1,0,.2.2.2.4,0,.2.2.3.4.4.3.2.7.2.8-.1,0,0,0-.2.1-.3,0-.1.2-.2.3-.2.3-.2.7-.3,1-.4.4,0,.8,0,1,.3,0,0,.1.2.2.2.4.3,1-.2,1.4.1,0,0,.1.2.2.2,0,0,.2,0,.3,0,.3,0,.7,0,1,0,.1,0,.2,0,.3,0,0,0,0,.2.1.3,0,.2.8.8.9.7-.4.3-.8.5-1.3.6.1.1.2.3.2.5-1.3.2-2.6.5-3.9.5-.8,0-1.6,0-2.4,0-2.7,0-5.5.7-8.1,0-.2,0-.4-.1-.5-.3,0-.1-.1-.3-.2-.3-.1-.1-.3,0-.5,0-1.1.2-2.3,0-3.4-.3-.7-.3-1.5-.7-2.3-.6.3-.6,1-.5,1.5-.9.4-.4.4-1,1-1.2.3-.1.7-.1,1,0Z"/>
        <path class="cls-10" d="M89.9,124.2c.3-.2.5-.6.7-.9.2-.3.4-.6.7-.8,0,0,.1-.1.2-.1,0,0,.1,0,.2,0,.4.2.8.4,1.2.7.1,0,.2.1.3.2,0,0,0,.2.1.3,0,.3.6,1.4.5,1.7,0,0,0,0-.1,0-.1,0-.3.1-.5.2-.1,0-.3.2-.3.4.5,0,.9-.2,1.4-.3,0,0,.2-.5.2-.6.1-.2.3-.3.5-.4.3-.2,1.1-.3,1.1-.8.2,0,.5,0,.7,0,.2,0,.5,0,.6.1,0,.1,0,.3.2.4.2.4.9.3,1.2.7.3.3.1,1.2.8,1.1.2,0,.3-.1.5-.2.3-.1.6-.1.9-.3.5-.3.4-.9,1.1-1.1.4,0,.8-.1,1.2,0,.4.2.6.8,1.1.9.4,0,.7.2,1.1.3,0-.5.2-1,.5-1.3.4-.3.8-.5,1.3-.6,0,0,.1,0,.2,0,0,0,0,0,.1.1.4.6,1.2.6,1.9.5.1,0,.2,0,.3-.1,0,0,0-.2,0-.3,0-.1,0-.3.1-.4.3-.5.8-1.1,1.3-1,.5.1.6,1.2.8,1.6,0,.2.1.3.2.5.1.1.3.2.4.3.5.2,1,.5,1.5.7-.2,0-2.4.2-2.5.1.3.7,1.4.3,1.9.9-.2-.2-3.1.3-3.5.3-1.1,0-2.2,0-3.3,0,.2,0,.4.2.5.4-1,.3-2.2.4-3.3,0,0-.1.2-.2.4-.2-1.6-.1-3.4-.2-4.9.3-.4.1-.9.3-1.3.4-.7.1-.9-.1-1.3-.5-.4-.3-.3-.4-1-.3-1.4.1-2.7.3-4.1,0,.2-.2.5-.3.8-.3-1.3,0-2.5,0-3.8-.2,0,0-.1,0-.2,0,0,0,0,0,0-.1.2-.6.3-1.3.5-1.9,0,0,0-.1,0-.2.1-.1.4,0,.6-.1,0,0,.2,0,.2,0Z"/>
        <g>
          <g>
            <path class="cls-7" d="M108.8,109.4c-.2-.7.1-1.6.6-2.2,1.1-1.7,3.3-1.6,4.4-2.8.9-1,.9-2.8,1.7-4.1,2-3.4,5-6.1,9-6.8.6-.1,1.3-.2,1.7-.7.2-.3.3-.7.4-1.1,1.3-6.3,8-10.5,14.4-10.9,2.5-.2,5.2.2,7.4,1.4,2.2,1.2,4,3.4,4.3,5.9,0,.6,0,1.3.4,1.8.6.9,2,.9,3,1.2,2.2.8,3.1,3.6,2.5,5.9-.6,2.3-2.4,4-4.1,5.6-5.1,4.6-9.3,1.1-14.7,4.4-7,4.3-20.9,5.5-28.9,4-.7-.1-1.4-.3-1.8-.9-.2-.2-.3-.4-.3-.7Z"/>
            <path class="cls-8" d="M109.3,109.5v-.2c.1-1,.9-1.7,1.7-2.2,1.5-1,3.3-1.4,5.1-1.9.3,0,.5-.2.8-.3.2-.2.4-.5.5-.8,1.9-4.2,5.6-7.5,10-8.9.8-.3,1.6-.4,2.4-.8,1.3-.5,2.4-1.5,3.6-2.3,4-2.9,9.3-4.7,13.9-3,1.4.5,2.8,1.4,3.4,2.7.3.6.5,1.3,1,1.7.4.3.8.4,1.3.5,1.5.5,2.9,1.6,3.5,3.1.9,2.3-.4,4-2,5.5-5.1,4.6-9.3,1.1-14.7,4.4-4.6,2.8-10.2,3.8-15.4,4.3-2.3.2-14.9,1.6-15-1.8Z"/>
          </g>
          <g>
            <path class="cls-7" d="M166.8,79.6c-1.1.1-2.2.7-3.2,1.3-.5.3-.9.5-1.4.8-1.1.7-2.3,1.3-3,2.4-.7,1.1-.9,2.7,0,3.6.6.6,1.5.8,2.3,1,1.7.3,3.6.4,5.3,0,1.7-.5,3.3-1.6,4-3.2,1.2-2.7-1-6.2-4.1-5.9Z"/>
            <path class="cls-7" d="M167.2,82.5c-.9.1-1.7.5-2.4.9-.4.3-.8.6-1.3.7-.4.1-.9,0-1.3.1-1,.1-2,.7-2.6,1.6-.3.5-.5,1.1-.4,1.6.2,1,1.5,1.2,2.3,1.3,1.7.3,3.6.4,5.3,0,2.1-.6,3.5-1.8,4.1-3.9.2-.5.2-1.2,0-1.7-.3-.5-1-.7-1.6-.8-.6,0-1.3,0-1.9,0Z"/>
          </g>
          <g>
            <path class="cls-7" d="M198.8,49.9c-.3,0-.7,0-1.1,0-1.4.2-2.9,1.1-3.4,2.4,0,.1-.1.3-.2.4-.1.2-.4.2-.6.2-3.1.5-5.9,1.6-7.8,4.3-2.1,2.9-1.9,7.4.9,9.7,1.2,1,2.7,1.5,4.3,1.8,4.5.8,9.2-.2,13-2.7,2.5-1.6,4.6-4.2,4.7-7.2,0-2.1-2.3-4.3-3.7-5.6-1.8-1.6-3.7-3.2-6.1-3.4Z"/>
            <path class="cls-7" d="M200,55.1c-1,.2-1.9.6-2.7,1.2-.2.2-.4.3-.7.4-.2.1-.5.1-.8.1-3.2.3-6.5,1.5-8.6,3.9-.8.9-1.4,1.9-1.6,3.1-.5,3.1,2.7,4.4,5.2,4.8,4.5.8,9.2-.2,13-2.7,1.6-1.1,5.4-4.3,4.4-6.7-.9-2-2.7-3.5-4.8-4.2-1.1-.3-2.4-.4-3.5-.1Z"/>
          </g>
        </g>
      </g>
    </g>
  </g>
</svg>