<?xml version="1.0" encoding="UTF-8"?>
<svg xmlns="http://www.w3.org/2000/svg" version="1.1" viewBox="0 0 250 160">
  <defs>
    <style>
      .cls-1, .cls-2 {
        fill: #2c3e3f;
      }

      .cls-2 {
        mix-blend-mode: multiply;
        opacity: .3;
      }

      .cls-3 {
        isolation: isolate;
      }

      .cls-4 {
        fill: #242b2b;
      }
    </style>
  </defs>
  <!-- Generator: Adobe Illustrator 28.7.1, SVG Export Plug-In . SVG Version: 1.2.0 Build 142)  -->
  <g class="cls-3">
    <g id="Layer_2">
      <polygon class="cls-2" points="-1.2 96.5 251.1 126.1 251 144.6 -1.2 142.9 -1.2 96.5"/>
      <polygon class="cls-1" points="-1.7 98.1 251 130.6 251 161.6 -1.7 161.6 -1.7 98.1"/>
      <g>
        <path class="cls-4" d="M126,127c0-.1,0-.2,0-.3,0-.2.2-.3.3-.5.4-.4.8-.8,1.3-1.1.5-.3,1.1-.3,1.6-.1,0,.9,1,1.8,1.9,1.5,0,0,.2,0,.3,0,.2,0,.3,0,.5.2.4.3,1.4,1,1.2,1.6-.7,0-1.5,0-2.2,0-1.7,0-3.8.4-5.4,0,.2-.3.4-.7.5-1,0,0,0-.2,0-.3Z"/>
        <path class="cls-4" d="M128.6,131c.2,0,.4-.3.6-.5.2-.2.6-.2.9-.1.3.1.5.4.5.7-.7.2-1.4.2-2.1,0"/>
        <path class="cls-4" d="M140.9,126.8c.3-.6.9-.9,1.5-1,.3,0,.6,0,.8.3.2.2.2.6,0,.7,0,0-.2,0-.3,0-.7,0-1.4.2-2-.1"/>
        <path class="cls-4" d="M156.2,117.1c.7-.4,1.4-.9,2.2-.5.9.4,1.1,1.7,1.9,2.1-.2.4-.8.5-1.3.6-1.5.1-3.4.2-4.8-.4.1-.7,1.4-1.4,2-1.8Z"/>
        <path class="cls-4" d="M164.5,120.1c.3-.3.6-.5.9-.8.1,0,.2-.2.4-.3.2,0,.4,0,.6,0,.3,0,.6,0,.8.2s.4.4.4.7c0,.3-.3.5-.5.6-.3,0-.5,0-.8,0-.6,0-1.2,0-1.8-.3"/>
        <path class="cls-4" d="M147.2,117.6c.3-.4.9-.5,1.2-.2,0,0,.1.1.1.2,0,.1-.1.2-.2.2-.4,0-.9,0-1.3-.1"/>
        <path class="cls-4" d="M195.9,133.5c.2-.6.8-1,1.3-1,.6,0,1.2.4,1.4.9-.9.2-1.9.3-2.9.2"/>
        <path class="cls-4" d="M178.2,133.6c.2,0,.3,0,.5,0,.4,0,.7-.5,1.1-.7.5-.3,1.1-.3,1.7,0,.8.4,2.3,1.4,2.2,2.5-2.1.3-5.3.5-7.2-.7.3-.5,1.1-1.1,1.7-1Z"/>
        <path class="cls-4" d="M194.8,124c.2-.7.8-1.3,1.6-1.4.7-.2,1.5.1,2,.8,0,0,.1.2.1.3,0,.3-.4.4-.6.4-1.1.1-2.3.2-3.4,0"/>
        <path class="cls-1" d="M200.5,124.4c.4-.7,1.7-.6,2,.2-.8.1-1.6.2-2.3,0"/>
        <path class="cls-4" d="M202.8,135c.3,0,.5-.2.8,0,.3,0,.5.4.7.6.6.7,1.6.8,2.5.9.9.2,1.9.5,2.3,1.3-2.3.1-4.6.3-6.8.4-1.2,0-3.7.5-4.5-.6,1.3-1.2,3.4-2,5.1-2.6Z"/>
        <path class="cls-4" d="M211.8,137.3c1-1.1,3.1-1,4,.2-1.4.2-2.8.3-4.2,0"/>
        <path class="cls-4" d="M181,141.9c.2,0,.3-.2.5-.1.2,0,.3.3.4.5.3.3.9,0,1.3-.1,1-.4,2.2,0,3.2.3,1.2.4,2.4.8,3.6,1.2-.3.5-1,.7-1.6.7-3,.1-7.1.7-9.9-.2.6-.9,1.6-1.7,2.5-2.2Z"/>
        <path class="cls-4" d="M72.3,138.7c.6-.3,1.3-.5,1.8-.9.3-.2.5-.5.8-.8.6-.4,1.3-.6,1.9-.8.9-.2,1.8-.4,2.6,0,.9.5,1.3,1.8,2.2,2.3.5.3,1.1.2,1.6.4.5.2,1,.9.6,1.3-.2.2-.4.3-.7.3-1.2.3-2.5.2-3.7.2-1.7,0-3.4,0-5.1-.1-1.4,0-5.3-.6-2.2-2Z"/>
        <path class="cls-4" d="M238.7,137.8c.7-.9,2.4-.8,2.9.2-1,.4-2.2.4-3.2-.2"/>
        <path class="cls-4" d="M82.7,114c1-.9,2.8-.6,3.6.5-1.4.2-2.9.2-4.3-.1.3-.3.8-.4,1.2-.2"/>
        <path class="cls-4" d="M88.4,114.5c.3-.7,1.5-.7,1.8,0,0,0,0,.2,0,.2,0,0-.1.1-.2.1-.5.1-1.1,0-1.5-.4"/>
        <path class="cls-4" d="M6.9,103.8c1.5.2,3.1,0,4.6-.4.2,0,.5-.2.6-.4,0-.2,0-.5-.2-.7-.7-.8-1.8-1.1-2.8-.8s-1.8,1.1-1.9,2.1c-.3.1-.3,0-.4.4,2.1.3,4.3.1,6.3-.4-.5-.5-1.1-.9-1.6-1.4"/>
        <path class="cls-4" d="M13.8,105.5c.3-.9,1.8-1,2.3-.2-.7.5-1.7.5-2.5.1"/>
        <path class="cls-4" d="M66.6,138.2c.4-.2.8-.5,1.3-.4.6.1,1.4.9,1.7,1.4,0,0,0,0,0,0,0,0,.1,0,.2,0,.2,0,.3-.1.5-.2.2,0,.4,0,.5,0,.2.2.2.5.4.5,0,0,.2,0,.2,0,.2,0,.3,0,.5,0,.2,0,.3,0,.4.2,0,.1,0,.2,0,.3.1.2.4.3.7.3-1.2.3-2.6,0-3.8,0-1.4,0-2.9,0-4.3,0,0,0-.3,0-.3,0,0,0,1.3-1.9,1.9-2.3Z"/>
      </g>
    </g>
  </g>
</svg>