<?xml version="1.0" encoding="UTF-8"?>
<svg xmlns="http://www.w3.org/2000/svg" version="1.1" xmlns:xlink="http://www.w3.org/1999/xlink" viewBox="0 0 250 140.1">
  <defs>
    <style>
      .cls-1 {
        fill: #2a3142;
      }

      .cls-2 {
        fill: url(#Degradado_sin_nombre_39);
      }

      .cls-2, .cls-3, .cls-4, .cls-5 {
        opacity: .2;
      }

      .cls-6 {
        fill: #2e343f;
      }

      .cls-7 {
        fill: #686653;
        opacity: .3;
      }

      .cls-8 {
        fill: #3e4c54;
      }

      .cls-9 {
        fill: #424854;
      }

      .cls-10 {
        fill: url(#radial-gradient);
      }

      .cls-11 {
        fill: url(#Nueva_muestra_de_degradado_2);
      }

      .cls-11, .cls-12 {
        opacity: .4;
      }

      .cls-13 {
        fill: #808285;
      }

      .cls-3 {
        mix-blend-mode: multiply;
      }

      .cls-3, .cls-14 {
        fill: #3b5e75;
      }

      .cls-15 {
        isolation: isolate;
      }

      .cls-12 {
        fill: url(#Degradado_sin_nombre_40);
      }

      .cls-16 {
        mix-blend-mode: screen;
      }

      .cls-4 {
        fill: url(#Nueva_muestra_de_degradado_1);
      }

      .cls-17 {
        fill: #fff9c0;
      }

      .cls-18 {
        fill: #20242d;
      }
    </style>
    <radialGradient id="radial-gradient" cx="200.3" cy="135.3" fx="200.3" fy="135.3" r="123" gradientTransform="translate(0 142) scale(1 -1)" gradientUnits="userSpaceOnUse">
      <stop offset="0" stop-color="#00c3e7"/>
      <stop offset="1" stop-color="#010717"/>
    </radialGradient>
    <linearGradient id="Nueva_muestra_de_degradado_1" data-name="Nueva muestra de degradado 1" x1="156.1" y1="-5.3" x2="156.5" y2="242.4" gradientUnits="userSpaceOnUse">
      <stop offset=".2" stop-color="#fff9c0"/>
      <stop offset=".2" stop-color="#fffbd9" stop-opacity=".6"/>
      <stop offset=".3" stop-color="#fffded" stop-opacity=".3"/>
      <stop offset=".3" stop-color="#fffefa" stop-opacity="0"/>
      <stop offset=".4" stop-color="#fff" stop-opacity="0"/>
    </linearGradient>
    <linearGradient id="Degradado_sin_nombre_39" data-name="Degradado sin nombre 39" x1="42.1" y1="9.6" x2="44.2" y2="178.4" gradientUnits="userSpaceOnUse">
      <stop offset="0" stop-color="#fff9c0"/>
      <stop offset=".2" stop-color="#fffbd9" stop-opacity=".6"/>
      <stop offset=".3" stop-color="#fffded" stop-opacity=".3"/>
      <stop offset=".4" stop-color="#fffefa" stop-opacity="0"/>
      <stop offset=".4" stop-color="#fff" stop-opacity="0"/>
    </linearGradient>
    <linearGradient id="Nueva_muestra_de_degradado_2" data-name="Nueva muestra de degradado 2" x1="160.9" y1="22.9" x2="160.7" y2="201" gradientUnits="userSpaceOnUse">
      <stop offset=".2" stop-color="#fff9c0"/>
      <stop offset=".3" stop-color="#fff9c1" stop-opacity="1"/>
      <stop offset=".3" stop-color="#fff9c6" stop-opacity=".9"/>
      <stop offset=".4" stop-color="#ffface" stop-opacity=".8"/>
      <stop offset=".4" stop-color="#fffbd9" stop-opacity=".6"/>
      <stop offset=".5" stop-color="#fffce7" stop-opacity=".4"/>
      <stop offset=".6" stop-color="#fffef8" stop-opacity="0"/>
      <stop offset=".6" stop-color="#fff" stop-opacity="0"/>
    </linearGradient>
    <linearGradient id="Degradado_sin_nombre_40" data-name="Degradado sin nombre 40" x1="64.9" y1="76.7" x2="249.9" y2="76.7" gradientUnits="userSpaceOnUse">
      <stop offset="0" stop-color="#fff9c0"/>
      <stop offset=".2" stop-color="#fff9c0" stop-opacity="1"/>
      <stop offset=".3" stop-color="#fff9c2" stop-opacity="1"/>
      <stop offset=".3" stop-color="#fff9c5" stop-opacity=".9"/>
      <stop offset=".4" stop-color="#fff9c9" stop-opacity=".9"/>
      <stop offset=".4" stop-color="#ffface" stop-opacity=".8"/>
      <stop offset=".4" stop-color="#fffbd5" stop-opacity=".7"/>
      <stop offset=".5" stop-color="#fffbdd" stop-opacity=".5"/>
      <stop offset=".5" stop-color="#fffce6" stop-opacity=".4"/>
      <stop offset=".5" stop-color="#fffdf1" stop-opacity=".2"/>
      <stop offset=".5" stop-color="#fffefc" stop-opacity="0"/>
      <stop offset=".5" stop-color="#fff" stop-opacity="0"/>
    </linearGradient>
  </defs>
  <!-- Generator: Adobe Illustrator 28.7.1, SVG Export Plug-In . SVG Version: 1.2.0 Build 142)  -->
  <g class="cls-15">
    <g id="Layer_1">
      <g class="cls-15">
        <g id="Layer_2">
          <g id="Layer_1-2">
            <g id="Stars">
              <rect class="cls-10" width="250" height="140.1"/>
              <g class="cls-16">
                <path class="cls-13" d="M60.2,23.9c-.2,0-.2.2-.2.2,0,0,0-.2-.2-.2.2,0,.2-.2.2-.2,0,0,0,.2.2.2Z"/>
                <path class="cls-13" d="M59.1,28c-.2,0-.2.2-.2.2,0,0,0-.2-.2-.2.2,0,.2-.2.2-.2,0,0,0,.2.2.2Z"/>
                <path class="cls-13" d="M61.7,48.6c-.2,0-.2.2-.2.2,0,0,0-.2-.2-.2.2,0,.2-.2.2-.2,0,0,0,.2.2.2Z"/>
                <path class="cls-13" d="M69.5,60.5c-.2,0-.2.2-.2.2,0,0,0-.2-.2-.2.2,0,.2-.2.2-.2,0,0,0,.2.2.2Z"/>
                <path class="cls-13" d="M69.2,75.1c-.2,0-.2.2-.2.2,0,0,0-.2-.2-.2.2,0,.2-.2.2-.2,0,0,0,.2.2.2Z"/>
                <path class="cls-13" d="M75.5,85c-.2,0-.2.2-.2.2,0,0,0-.2-.2-.2.2,0,.2-.2.2-.2,0,0,0,.2.2.2Z"/>
                <path class="cls-13" d="M73.5,100.9c-.2,0-.2.2-.2.2,0,0,0-.2-.2-.2.2,0,.2-.2.2-.2,0,0,0,.2.2.2Z"/>
                <path class="cls-13" d="M74.6,120c-.2,0-.2.2-.2.2,0,0,0-.2-.2-.2.2,0,.2-.2.2-.2,0,0,0,.2.2.2Z"/>
                <path class="cls-13" d="M60.7,111.8c-.2,0-.2.2-.2.2,0,0,0-.2-.2-.2.2,0,.2-.2.2-.2,0,0,0,.2.2.2Z"/>
                <path class="cls-13" d="M50,104.4c-.2,0-.2.2-.2.2,0,0,0-.2-.2-.2.2,0,.2-.2.2-.2,0,0,0,.2.2.2Z"/>
                <path class="cls-13" d="M41.2,98.9c-.2,0-.2.2-.2.2,0,0,0-.2-.2-.2.2,0,.2-.2.2-.2,0,0,0,.2.2.2Z"/>
                <path class="cls-13" d="M31.5,101.9c-.2,0-.2.2-.2.2,0,0,0-.2-.2-.2.2,0,.2-.2.2-.2,0,0,0,.2.2.2Z"/>
                <path class="cls-13" d="M22.7,100.6c-.2,0-.2.2-.2.2,0,0,0-.2-.2-.2.2,0,.2-.2.2-.2,0,0,0,.2.2.2Z"/>
                <path class="cls-13" d="M17.7,76.8c-.2,0-.2.2-.2.2,0,0,0-.2-.2-.2.2,0,.2-.2.2-.2,0,0,0,.2.2.2Z"/>
                <path class="cls-13" d="M36.3,83.8c-.2,0-.2.2-.2.2,0,0,0-.2-.2-.2.2,0,.2-.2.2-.2,0,0,0,.2.2.2Z"/>
                <path class="cls-13" d="M33.5,82.1c-.2,0-.2.2-.2.2,0,0,0-.2-.2-.2.2,0,.2-.2.2-.2,0,0,0,.2.2.2Z"/>
                <path class="cls-13" d="M33.8,63.3c-.2,0-.2.2-.2.2,0,0,0-.2-.2-.2.2,0,.2-.2.2-.2,0,0,0,.2.2.2Z"/>
                <path class="cls-13" d="M46.2,53.3c-.2,0-.2.2-.2.2,0,0,0-.2-.2-.2.2,0,.2-.2.2-.2,0,0,0,.2.2.2Z"/>
                <path class="cls-13" d="M51,77c-.2,0-.2.2-.2.2,0,0,0-.2-.2-.2.2,0,.2-.2.2-.2,0,0,0,.2.2.2Z"/>
                <path class="cls-13" d="M29,79.1c-.2,0-.2.2-.2.2,0,0,0-.2-.2-.2.2,0,.2-.2.2-.2,0,0,0,.2.2.2Z"/>
                <path class="cls-13" d="M20.9,87.4c-.2,0-.2.2-.2.2,0,0,0-.2-.2-.2.2,0,.2-.2.2-.2,0,0,0,.2.2.2Z"/>
                <path class="cls-13" d="M18.5,60.1c-.2,0-.2.2-.2.2,0,0,0-.2-.2-.2.2,0,.2-.2.2-.2,0,0,0,.2.2.2Z"/>
                <path class="cls-13" d="M16.3,45.2c-.2,0-.2.2-.2.2,0,0,0-.2-.2-.2.2,0,.2-.2.2-.2,0,0,0,.2.2.2Z"/>
                <path class="cls-13" d="M7.5,56.8c-.2,0-.2.2-.2.2,0,0,0-.2-.2-.2.2,0,.2-.2.2-.2,0,0,0,.2.2.2Z"/>
                <path class="cls-13" d="M22.5,51.9c-.2,0-.2.2-.2.2,0,0,0-.2-.2-.2.2,0,.2-.2.2-.2,0,0,0,.2.2.2Z"/>
                <path class="cls-13" d="M22.7,41.8c-.2,0-.2.2-.2.2,0,0,0-.2-.2-.2.2,0,.2-.2.2-.2,0,0,0,.2.2.2Z"/>
                <path class="cls-13" d="M19.1,35.5c-.2,0-.2.2-.2.2,0,0,0-.2-.2-.2.2,0,.2-.2.2-.2,0,0,0,.2.2.2Z"/>
                <path class="cls-13" d="M16.1,26.7c-.2,0-.2.2-.2.2,0,0,0-.2-.2-.2.2,0,.2-.2.2-.2,0,0,0,.2.2.2Z"/>
                <path class="cls-13" d="M23,11.1c-.2,0-.2.2-.2.2,0,0,0-.2-.2-.2.2,0,.2-.2.2-.2,0,0,0,.2.2.2Z"/>
                <path class="cls-13" d="M25.7,17.9c-.2,0-.2.2-.2.2,0,0,0-.2-.2-.2.2,0,.2-.2.2-.2,0,0,0,.2.2.2Z"/>
                <path class="cls-13" d="M30.7,24.2c-.2,0-.2.2-.2.2,0,0,0-.2-.2-.2.2,0,.2-.2.2-.2,0,0,0,.2.2.2Z"/>
                <path class="cls-13" d="M33.5,19c-.2,0-.2.2-.2.2,0,0,0-.2-.2-.2.2,0,.2-.2.2-.2,0,0,0,.2.2.2Z"/>
                <path class="cls-13" d="M14.2,16c-.2,0-.2.2-.2.2,0,0,0-.2-.2-.2.2,0,.2-.2.2-.2,0,0,0,.2.2.2Z"/>
                <path class="cls-13" d="M6,10.8c-.2,0-.2.2-.2.2,0,0,0-.2-.2-.2.2,0,.2-.2.2-.2,0,0,0,.2.2.2Z"/>
                <path class="cls-13" d="M46.5,65.7c-.2,0-.2.2-.2.2,0,0,0-.2-.2-.2.2,0,.2-.2.2-.2,0,0,0,.2.2.2Z"/>
                <path class="cls-13" d="M63,102.3c-.2,0-.2.2-.2.2,0,0,0-.2-.2-.2.2,0,.2-.2.2-.2,0,0,0,.2.2.2Z"/>
                <path class="cls-13" d="M46,127.7c-.2,0-.2.2-.2.2,0,0,0-.2-.2-.2.2,0,.2-.2.2-.2,0,0,0,.2.2.2Z"/>
                <path class="cls-13" d="M78.7,95c-.2,0-.2.2-.2.2,0,0,0-.2-.2-.2.2,0,.2-.2.2-.2,0,0,0,.2.2.2Z"/>
                <path class="cls-13" d="M52.5,87.1c-.2,0-.2.2-.2.2,0,0,0-.2-.2-.2.2,0,.2-.2.2-.2,0,0,0,.2.2.2Z"/>
                <path class="cls-13" d="M78.4,35.7c-.2,0-.2.2-.2.2,0,0,0-.2-.2-.2.2,0,.2-.2.2-.2,0,0,0,.2.2.2Z"/>
                <path class="cls-13" d="M54.3,118.4c-.2,0-.2.2-.2.2,0,0,0-.2-.2-.2.2,0,.2-.2.2-.2,0,0,0,.2.2.2Z"/>
                <path class="cls-13" d="M58.8,127.2c-.2,0-.2.2-.2.2,0,0,0-.2-.2-.2.2,0,.2-.2.2-.2,0,0,0,.2.2.2Z"/>
                <path class="cls-13" d="M63.9,134.2c-.2,0-.2.2-.2.2,0,0,0-.2-.2-.2.2,0,.2-.2.2-.2,0,0,0,.2.2.2Z"/>
                <path class="cls-13" d="M54.5,129.6c-.4,0-.4.4-.4.4,0,0,0-.4-.4-.4.4,0,.4-.4.4-.4,0,0,0,.4.4.4Z"/>
                <path class="cls-13" d="M39.3,118.4c-.4,0-.4.4-.4.4,0,0,0-.3-.4-.4.4,0,.4-.4.4-.4,0,0,0,.3.4.4Z"/>
                <path class="cls-13" d="M55.1,100.4c-.4,0-.4.4-.4.4,0,0,0-.3-.4-.4.4,0,.4-.4.4-.4,0,0,0,.3.4.4Z"/>
                <path class="cls-13" d="M64.3,76.3c-.4,0-.4.4-.4.4,0,0,0-.3-.4-.4.4,0,.4-.4.4-.4,0,0,0,.3.4.4Z"/>
                <path class="cls-13" d="M58.6,52.9c-.4,0-.4.4-.4.4,0,0,0-.3-.4-.4.4,0,.4-.4.4-.4,0,0,0,.3.4.4Z"/>
                <path class="cls-13" d="M72.8,29.5c-.4,0-.4.4-.4.4,0,0,0-.4-.4-.4.4,0,.4-.4.4-.4,0,0,0,.4.4.4Z"/>
                <path class="cls-13" d="M42.7,5.8c-.4,0-.4.4-.4.4,0,0,0-.3-.4-.4.4,0,.4-.4.4-.4,0,0,0,.3.4.4Z"/>
                <path class="cls-13" d="M80.3,22.1c-.4,0-.4.4-.4.4,0,0,0-.4-.4-.4.4,0,.4-.4.4-.4,0,0,0,.4.4.4Z"/>
                <path class="cls-13" d="M41.4,18.7c-.4,0-.4.4-.4.4,0,0,0-.4-.4-.4.4,0,.4-.4.4-.4,0,0,0,.4.4.4Z"/>
                <path class="cls-13" d="M37.1,39.2c-.4,0-.4.4-.4.4,0,0,0-.3-.4-.4.4,0,.4-.4.4-.4,0,0,0,.3.4.4Z"/>
                <path class="cls-13" d="M21.6,131c-.7.1-.8.8-.8.8,0,0,0-.7-.8-.8.7-.1.8-.8.8-.8,0,0,0,.7.8.8Z"/>
                <path class="cls-13" d="M8.8,79.3c-.7.1-.8.8-.8.8,0,0,0-.7-.8-.8.7-.1.8-.8.8-.8,0,0,0,.7.8.8Z"/>
                <path class="cls-13" d="M75.9,13.9c-.7.1-.8.8-.8.8,0,0,0-.7-.8-.8.7-.1.8-.8.8-.8,0,0,0,.7.8.8Z"/>
                <path class="cls-13" d="M81.5,63.3c-.7.1-.8.8-.8.8,0,0,0-.7-.8-.8.7-.1.8-.8.8-.8,0,0,0,.7.8.8Z"/>
                <path class="cls-13" d="M78.4,132c-.7.1-.8.8-.8.8,0,0,0-.7-.8-.8.7-.1.8-.8.8-.8,0,0,0,.7.8.8Z"/>
                <path class="cls-13" d="M8.4,107.8c-.7.1-.8.8-.8.8,0,0,0-.7-.8-.8.7-.1.8-.8.8-.8,0,0,0,.7.8.8Z"/>
                <path class="cls-13" d="M8,25.1c-.7.1-.8.8-.8.8,0,0,0-.7-.8-.8.7-.1.8-.8.8-.8,0,0,0,.7.8.8Z"/>
                <path class="cls-13" d="M16.7,4.7c-.7.1-.8.8-.8.8,0,0,0-.7-.8-.8.7-.1.8-.8.8-.8,0,0,0,.7.8.8Z"/>
                <path class="cls-13" d="M51.5,16.8c-.7.1-.8.8-.8.8,0,0,0-.7-.8-.8.7-.1.8-.8.8-.8,0,0,0,.7.8.8Z"/>
                <path class="cls-13" d="M52.3,39.6c-.7.1-.8.8-.8.8,0,0,0-.7-.8-.8.7-.1.8-.8.8-.8,0,0,0,.7.8.8Z"/>
                <path class="cls-13" d="M66.3,5c-.3,0-.4.4-.4.4,0,0,0-.3-.4-.4.3,0,.4-.4.4-.4,0,0,0,.3.4.4Z"/>
                <path class="cls-13" d="M54.4,28.4c-.3,0-.4.4-.4.4,0,0,0-.3-.4-.4.3,0,.4-.4.4-.4,0,0,0,.3.4.4Z"/>
                <path class="cls-13" d="M28.9,40.5c-.3,0-.4.4-.4.4,0,0,0-.3-.4-.4.3,0,.4-.4.4-.4,0,0,0,.3.4.4Z"/>
                <path class="cls-13" d="M41.3,28.7c-.3,0-.4.4-.4.4,0,0,0-.3-.4-.4.3,0,.4-.4.4-.4,0,0,0,.3.4.4Z"/>
                <path class="cls-13" d="M51.9,3.8c-.3,0-.4.4-.4.4,0,0,0-.3-.4-.4.3,0,.4-.4.4-.4,0,0,0,.3.4.4Z"/>
                <path class="cls-13" d="M35.9,6.2c-.3,0-.4.4-.4.4,0,0,0-.3-.4-.4.3,0,.4-.4.4-.4,0,0,0,.3.4.4Z"/>
                <path class="cls-13" d="M80.3,5.4c-.3,0-.4.4-.4.4,0,0,0-.3-.4-.4.3,0,.4-.4.4-.4,0,0,0,.3.4.4Z"/>
                <path class="cls-13" d="M10.4,70.1c-.3,0-.4.4-.4.4,0,0,0-.3-.4-.4.3,0,.4-.4.4-.4,0,0,0,.3.4.4Z"/>
                <path class="cls-13" d="M81.1,112.6c-.3,0-.4.4-.4.4,0,0,0-.3-.4-.4.3,0,.4-.4.4-.4,0,0,0,.3.4.4Z"/>
                <path class="cls-13" d="M8.4,93c-.4,0-.4.4-.4.4,0,0,0-.3-.4-.4.4,0,.4-.4.4-.4,0,0,0,.3.4.4Z"/>
                <path class="cls-13" d="M59,10.8c-.4,0-.4.4-.4.4,0,0,0-.4-.4-.4.4,0,.4-.4.4-.4,0,0,0,.4.4.4Z"/>
                <path class="cls-13" d="M75.9,46.7c-.4,0-.4.4-.4.4,0,0,0-.3-.4-.4.4,0,.4-.4.4-.4,0,0,0,.3.4.4Z"/>
                <path class="cls-13" d="M31.9,50.6c-.4,0-.4.4-.4.4,0,0,0-.3-.4-.4.4,0,.4-.4.4-.4,0,0,0,.3.4.4Z"/>
                <path class="cls-13" d="M25.3,47.9c-.4,0-.4.4-.4.4,0,0,0-.3-.4-.4.4,0,.4-.4.4-.4,0,0,0,.3.4.4Z"/>
                <path class="cls-13" d="M141.7,23.9c-.2,0-.2.2-.2.2,0,0,0-.2-.2-.2.2,0,.2-.2.2-.2,0,0,0,.2.2.2Z"/>
                <path class="cls-13" d="M140.6,28c-.2,0-.2.2-.2.2,0,0,0-.2-.2-.2.2,0,.2-.2.2-.2,0,0,0,.2.2.2Z"/>
                <path class="cls-13" d="M143.1,48.6c-.2,0-.2.2-.2.2,0,0,0-.2-.2-.2.2,0,.2-.2.2-.2,0,0,0,.2.2.2Z"/>
                <path class="cls-13" d="M150.9,60.5c-.2,0-.2.2-.2.2,0,0,0-.2-.2-.2.2,0,.2-.2.2-.2,0,0,0,.2.2.2Z"/>
                <path class="cls-13" d="M150.7,75.1c-.2,0-.2.2-.2.2,0,0,0-.2-.2-.2.2,0,.2-.2.2-.2,0,0,0,.2.2.2Z"/>
                <path class="cls-13" d="M156.9,85c-.2,0-.2.2-.2.2,0,0,0-.2-.2-.2.2,0,.2-.2.2-.2,0,0,0,.2.2.2Z"/>
                <path class="cls-13" d="M154.9,100.9c-.2,0-.2.2-.2.2,0,0,0-.2-.2-.2.2,0,.2-.2.2-.2,0,0,0,.2.2.2Z"/>
                <path class="cls-13" d="M156.1,120c-.2,0-.2.2-.2.2,0,0,0-.2-.2-.2.2,0,.2-.2.2-.2,0,0,0,.2.2.2Z"/>
                <path class="cls-13" d="M142.2,111.8c-.2,0-.2.2-.2.2,0,0,0-.2-.2-.2.2,0,.2-.2.2-.2,0,0,0,.2.2.2Z"/>
                <path class="cls-13" d="M131.5,104.4c-.2,0-.2.2-.2.2,0,0,0-.2-.2-.2.2,0,.2-.2.2-.2,0,0,0,.2.2.2Z"/>
                <path class="cls-13" d="M122.7,98.9c-.2,0-.2.2-.2.2,0,0,0-.2-.2-.2.2,0,.2-.2.2-.2,0,0,0,.2.2.2Z"/>
                <path class="cls-13" d="M113,101.9c-.2,0-.2.2-.2.2,0,0,0-.2-.2-.2.2,0,.2-.2.2-.2,0,0,0,.2.2.2Z"/>
                <path class="cls-13" d="M104.2,100.6c-.2,0-.2.2-.2.2,0,0,0-.2-.2-.2.2,0,.2-.2.2-.2,0,0,0,.2.2.2Z"/>
                <path class="cls-13" d="M99.2,76.8c-.2,0-.2.2-.2.2,0,0,0-.2-.2-.2.2,0,.2-.2.2-.2,0,0,0,.2.2.2Z"/>
                <path class="cls-13" d="M117.8,83.8c-.2,0-.2.2-.2.2,0,0,0-.2-.2-.2.2,0,.2-.2.2-.2,0,0,0,.2.2.2Z"/>
                <path class="cls-13" d="M115,82.1c-.2,0-.2.2-.2.2,0,0,0-.2-.2-.2.2,0,.2-.2.2-.2,0,0,0,.2.2.2Z"/>
                <path class="cls-13" d="M115.2,63.3c-.2,0-.2.2-.2.2,0,0,0-.2-.2-.2.2,0,.2-.2.2-.2,0,0,0,.2.2.2Z"/>
                <path class="cls-13" d="M127.7,53.3c-.2,0-.2.2-.2.2,0,0,0-.2-.2-.2.2,0,.2-.2.2-.2,0,0,0,.2.2.2Z"/>
                <path class="cls-13" d="M132.4,77c-.2,0-.2.2-.2.2,0,0,0-.2-.2-.2.2,0,.2-.2.2-.2,0,0,0,.2.2.2Z"/>
                <path class="cls-13" d="M110.4,79.1c-.2,0-.2.2-.2.2,0,0,0-.2-.2-.2.2,0,.2-.2.2-.2,0,0,0,.2.2.2Z"/>
                <path class="cls-13" d="M102.3,87.4c-.2,0-.2.2-.2.2,0,0,0-.2-.2-.2.2,0,.2-.2.2-.2,0,0,0,.2.2.2Z"/>
                <path class="cls-13" d="M99.9,60.1c-.2,0-.2.2-.2.2,0,0,0-.2-.2-.2.2,0,.2-.2.2-.2,0,0,0,.2.2.2Z"/>
                <path class="cls-13" d="M97.7,45.2c-.2,0-.2.2-.2.2,0,0,0-.2-.2-.2.2,0,.2-.2.2-.2,0,0,0,.2.2.2Z"/>
                <path class="cls-13" d="M88.9,56.8c-.2,0-.2.2-.2.2,0,0,0-.2-.2-.2.2,0,.2-.2.2-.2,0,0,0,.2.2.2Z"/>
                <path class="cls-13" d="M104,51.9c-.2,0-.2.2-.2.2,0,0,0-.2-.2-.2.2,0,.2-.2.2-.2,0,0,0,.2.2.2Z"/>
                <path class="cls-13" d="M104.2,41.8c-.2,0-.2.2-.2.2,0,0,0-.2-.2-.2.2,0,.2-.2.2-.2,0,0,0,.2.2.2Z"/>
                <path class="cls-13" d="M100.6,35.5c-.2,0-.2.2-.2.2,0,0,0-.2-.2-.2.2,0,.2-.2.2-.2,0,0,0,.2.2.2Z"/>
                <path class="cls-13" d="M97.6,26.7c-.2,0-.2.2-.2.2,0,0,0-.2-.2-.2.2,0,.2-.2.2-.2,0,0,0,.2.2.2Z"/>
                <path class="cls-13" d="M104.4,11.1c-.2,0-.2.2-.2.2,0,0,0-.2-.2-.2.2,0,.2-.2.2-.2,0,0,0,.2.2.2Z"/>
                <path class="cls-13" d="M107.2,17.9c-.2,0-.2.2-.2.2,0,0,0-.2-.2-.2.2,0,.2-.2.2-.2,0,0,0,.2.2.2Z"/>
                <path class="cls-13" d="M112.2,24.2c-.2,0-.2.2-.2.2,0,0,0-.2-.2-.2.2,0,.2-.2.2-.2,0,0,0,.2.2.2Z"/>
                <path class="cls-13" d="M115,19c-.2,0-.2.2-.2.2,0,0,0-.2-.2-.2.2,0,.2-.2.2-.2,0,0,0,.2.2.2Z"/>
                <path class="cls-13" d="M95.6,16c-.2,0-.2.2-.2.2,0,0,0-.2-.2-.2.2,0,.2-.2.2-.2,0,0,0,.2.2.2Z"/>
                <path class="cls-13" d="M87.5,10.8c-.2,0-.2.2-.2.2,0,0,0-.2-.2-.2.2,0,.2-.2.2-.2,0,0,0,.2.2.2Z"/>
                <path class="cls-13" d="M127.9,65.7c-.2,0-.2.2-.2.2,0,0,0-.2-.2-.2.2,0,.2-.2.2-.2,0,0,0,.2.2.2Z"/>
                <path class="cls-13" d="M144.4,102.3c-.2,0-.2.2-.2.2,0,0,0-.2-.2-.2.2,0,.2-.2.2-.2,0,0,0,.2.2.2Z"/>
                <path class="cls-13" d="M127.4,127.7c-.2,0-.2.2-.2.2,0,0,0-.2-.2-.2.2,0,.2-.2.2-.2,0,0,0,.2.2.2Z"/>
                <path class="cls-13" d="M160.1,95c-.2,0-.2.2-.2.2,0,0,0-.2-.2-.2.2,0,.2-.2.2-.2,0,0,0,.2.2.2Z"/>
                <path class="cls-13" d="M134,87.1c-.2,0-.2.2-.2.2,0,0,0-.2-.2-.2.2,0,.2-.2.2-.2,0,0,0,.2.2.2Z"/>
                <path class="cls-13" d="M159.9,35.7c-.2,0-.2.2-.2.2,0,0,0-.2-.2-.2.2,0,.2-.2.2-.2,0,0,0,.2.2.2Z"/>
                <path class="cls-13" d="M135.8,118.4c-.2,0-.2.2-.2.2,0,0,0-.2-.2-.2.2,0,.2-.2.2-.2,0,0,0,.2.2.2Z"/>
                <path class="cls-13" d="M140.3,127.2c-.2,0-.2.2-.2.2,0,0,0-.2-.2-.2.2,0,.2-.2.2-.2,0,0,0,.2.2.2Z"/>
                <path class="cls-13" d="M145.4,134.2c-.2,0-.2.2-.2.2,0,0,0-.2-.2-.2.2,0,.2-.2.2-.2,0,0,0,.2.2.2Z"/>
                <path class="cls-13" d="M136,129.6c-.4,0-.4.4-.4.4,0,0,0-.4-.4-.4.4,0,.4-.4.4-.4,0,0,0,.4.4.4Z"/>
                <path class="cls-13" d="M120.7,118.4c-.4,0-.4.4-.4.4,0,0,0-.3-.4-.4.4,0,.4-.4.4-.4,0,0,0,.3.4.4Z"/>
                <path class="cls-13" d="M136.6,100.4c-.4,0-.4.4-.4.4,0,0,0-.3-.4-.4.4,0,.4-.4.4-.4,0,0,0,.3.4.4Z"/>
                <path class="cls-13" d="M145.7,76.3c-.4,0-.4.4-.4.4,0,0,0-.3-.4-.4.4,0,.4-.4.4-.4,0,0,0,.3.4.4Z"/>
                <path class="cls-13" d="M140.1,52.9c-.4,0-.4.4-.4.4,0,0,0-.3-.4-.4.4,0,.4-.4.4-.4,0,0,0,.3.4.4Z"/>
                <path class="cls-13" d="M154.3,29.5c-.4,0-.4.4-.4.4,0,0,0-.4-.4-.4.4,0,.4-.4.4-.4,0,0,0,.4.4.4Z"/>
                <path class="cls-13" d="M124.2,5.8c-.4,0-.4.4-.4.4,0,0,0-.3-.4-.4.4,0,.4-.4.4-.4,0,0,0,.3.4.4Z"/>
                <path class="cls-13" d="M161.8,22.1c-.4,0-.4.4-.4.4,0,0,0-.4-.4-.4.4,0,.4-.4.4-.4,0,0,0,.4.4.4Z"/>
                <path class="cls-13" d="M122.8,18.7c-.4,0-.4.4-.4.4,0,0,0-.4-.4-.4.4,0,.4-.4.4-.4,0,0,0,.4.4.4Z"/>
                <path class="cls-13" d="M118.6,39.2c-.4,0-.4.4-.4.4,0,0,0-.3-.4-.4.4,0,.4-.4.4-.4,0,0,0,.3.4.4Z"/>
                <path class="cls-13" d="M103.1,131c-.7.1-.8.8-.8.8,0,0,0-.7-.8-.8.7-.1.8-.8.8-.8,0,0,0,.7.8.8Z"/>
                <path class="cls-13" d="M90.3,79.3c-.7.1-.8.8-.8.8,0,0,0-.7-.8-.8.7-.1.8-.8.8-.8,0,0,0,.7.8.8Z"/>
                <path class="cls-13" d="M157.3,13.9c-.7.1-.8.8-.8.8,0,0,0-.7-.8-.8.7-.1.8-.8.8-.8,0,0,0,.7.8.8Z"/>
                <path class="cls-13" d="M163,63.3c-.7.1-.8.8-.8.8,0,0,0-.7-.8-.8.7-.1.8-.8.8-.8,0,0,0,.7.8.8Z"/>
                <path class="cls-13" d="M159.9,132c-.7.1-.8.8-.8.8,0,0,0-.7-.8-.8.7-.1.8-.8.8-.8,0,0,0,.7.8.8Z"/>
                <path class="cls-13" d="M89.9,107.8c-.7.1-.8.8-.8.8,0,0,0-.7-.8-.8.7-.1.8-.8.8-.8,0,0,0,.7.8.8Z"/>
                <path class="cls-13" d="M89.5,25.1c-.7.1-.8.8-.8.8,0,0,0-.7-.8-.8.7-.1.8-.8.8-.8,0,0,0,.7.8.8Z"/>
                <path class="cls-13" d="M98.1,4.7c-.7.1-.8.8-.8.8,0,0,0-.7-.8-.8.7-.1.8-.8.8-.8,0,0,0,.7.8.8Z"/>
                <path class="cls-13" d="M133,16.8c-.7.1-.8.8-.8.8,0,0,0-.7-.8-.8.7-.1.8-.8.8-.8,0,0,0,.7.8.8Z"/>
                <path class="cls-13" d="M133.8,39.6c-.7.1-.8.8-.8.8,0,0,0-.7-.8-.8.7-.1.8-.8.8-.8,0,0,0,.7.8.8Z"/>
                <path class="cls-13" d="M147.7,5c-.3,0-.4.4-.4.4,0,0,0-.3-.4-.4.3,0,.4-.4.4-.4,0,0,0,.3.4.4Z"/>
                <path class="cls-13" d="M135.9,28.4c-.3,0-.4.4-.4.4,0,0,0-.3-.4-.4.3,0,.4-.4.4-.4,0,0,0,.3.4.4Z"/>
                <path class="cls-13" d="M110.3,40.5c-.3,0-.4.4-.4.4,0,0,0-.3-.4-.4.3,0,.4-.4.4-.4,0,0,0,.3.4.4Z"/>
                <path class="cls-13" d="M122.8,28.7c-.3,0-.4.4-.4.4,0,0,0-.3-.4-.4.3,0,.4-.4.4-.4,0,0,0,.3.4.4Z"/>
                <path class="cls-13" d="M133.4,3.8c-.3,0-.4.4-.4.4,0,0,0-.3-.4-.4.3,0,.4-.4.4-.4,0,0,0,.3.4.4Z"/>
                <path class="cls-13" d="M117.4,6.2c-.3,0-.4.4-.4.4,0,0,0-.3-.4-.4.3,0,.4-.4.4-.4,0,0,0,.3.4.4Z"/>
                <path class="cls-13" d="M161.8,5.4c-.3,0-.4.4-.4.4,0,0,0-.3-.4-.4.3,0,.4-.4.4-.4,0,0,0,.3.4.4Z"/>
                <path class="cls-13" d="M91.9,70.1c-.3,0-.4.4-.4.4,0,0,0-.3-.4-.4.3,0,.4-.4.4-.4,0,0,0,.3.4.4Z"/>
                <path class="cls-13" d="M162.6,112.6c-.3,0-.4.4-.4.4,0,0,0-.3-.4-.4.3,0,.4-.4.4-.4,0,0,0,.3.4.4Z"/>
                <path class="cls-13" d="M89.9,93c-.4,0-.4.4-.4.4,0,0,0-.3-.4-.4.4,0,.4-.4.4-.4,0,0,0,.3.4.4Z"/>
                <path class="cls-13" d="M140.5,10.8c-.4,0-.4.4-.4.4,0,0,0-.4-.4-.4.4,0,.4-.4.4-.4,0,0,0,.4.4.4Z"/>
                <path class="cls-13" d="M157.3,46.7c-.4,0-.4.4-.4.4,0,0,0-.3-.4-.4.4,0,.4-.4.4-.4,0,0,0,.3.4.4Z"/>
                <path class="cls-13" d="M113.4,50.6c-.4,0-.4.4-.4.4,0,0,0-.3-.4-.4.4,0,.4-.4.4-.4,0,0,0,.3.4.4Z"/>
                <path class="cls-13" d="M106.7,47.9c-.4,0-.4.4-.4.4,0,0,0-.3-.4-.4.4,0,.4-.4.4-.4,0,0,0,.3.4.4Z"/>
                <path class="cls-13" d="M223.1,23.9c-.2,0-.2.2-.2.2,0,0,0-.2-.2-.2.2,0,.2-.2.2-.2,0,0,0,.2.2.2Z"/>
                <path class="cls-13" d="M222,28c-.2,0-.2.2-.2.2,0,0,0-.2-.2-.2.2,0,.2-.2.2-.2,0,0,0,.2.2.2Z"/>
                <path class="cls-13" d="M224.6,48.6c-.2,0-.2.2-.2.2,0,0,0-.2-.2-.2.2,0,.2-.2.2-.2,0,0,0,.2.2.2Z"/>
                <path class="cls-13" d="M232.4,60.5c-.2,0-.2.2-.2.2,0,0,0-.2-.2-.2.2,0,.2-.2.2-.2,0,0,0,.2.2.2Z"/>
                <path class="cls-13" d="M232.2,75.1c-.2,0-.2.2-.2.2,0,0,0-.2-.2-.2.2,0,.2-.2.2-.2,0,0,0,.2.2.2Z"/>
                <path class="cls-13" d="M238.4,85c-.2,0-.2.2-.2.2,0,0,0-.2-.2-.2.2,0,.2-.2.2-.2,0,0,0,.2.2.2Z"/>
                <path class="cls-13" d="M236.4,100.9c-.2,0-.2.2-.2.2,0,0,0-.2-.2-.2.2,0,.2-.2.2-.2,0,0,0,.2.2.2Z"/>
                <path class="cls-13" d="M237.5,120c-.2,0-.2.2-.2.2,0,0,0-.2-.2-.2.2,0,.2-.2.2-.2,0,0,0,.2.2.2Z"/>
                <path class="cls-13" d="M223.7,111.8c-.2,0-.2.2-.2.2,0,0,0-.2-.2-.2.2,0,.2-.2.2-.2,0,0,0,.2.2.2Z"/>
                <path class="cls-13" d="M213,104.4c-.2,0-.2.2-.2.2,0,0,0-.2-.2-.2.2,0,.2-.2.2-.2,0,0,0,.2.2.2Z"/>
                <path class="cls-13" d="M204.1,98.9c-.2,0-.2.2-.2.2,0,0,0-.2-.2-.2.2,0,.2-.2.2-.2,0,0,0,.2.2.2Z"/>
                <path class="cls-13" d="M194.4,101.9c-.2,0-.2.2-.2.2,0,0,0-.2-.2-.2.2,0,.2-.2.2-.2,0,0,0,.2.2.2Z"/>
                <path class="cls-13" d="M185.7,100.6c-.2,0-.2.2-.2.2,0,0,0-.2-.2-.2.2,0,.2-.2.2-.2,0,0,0,.2.2.2Z"/>
                <path class="cls-13" d="M180.6,76.8c-.2,0-.2.2-.2.2,0,0,0-.2-.2-.2.2,0,.2-.2.2-.2,0,0,0,.2.2.2Z"/>
                <path class="cls-13" d="M199.2,83.8c-.2,0-.2.2-.2.2,0,0,0-.2-.2-.2.2,0,.2-.2.2-.2,0,0,0,.2.2.2Z"/>
                <path class="cls-13" d="M196.5,82.1c-.2,0-.2.2-.2.2,0,0,0-.2-.2-.2.2,0,.2-.2.2-.2,0,0,0,.2.2.2Z"/>
                <path class="cls-13" d="M196.7,63.3c-.2,0-.2.2-.2.2,0,0,0-.2-.2-.2.2,0,.2-.2.2-.2,0,0,0,.2.2.2Z"/>
                <path class="cls-13" d="M209.2,53.3c-.2,0-.2.2-.2.2,0,0,0-.2-.2-.2.2,0,.2-.2.2-.2,0,0,0,.2.2.2Z"/>
                <path class="cls-13" d="M213.9,77c-.2,0-.2.2-.2.2,0,0,0-.2-.2-.2.2,0,.2-.2.2-.2,0,0,0,.2.2.2Z"/>
                <path class="cls-13" d="M191.9,79.1c-.2,0-.2.2-.2.2,0,0,0-.2-.2-.2.2,0,.2-.2.2-.2,0,0,0,.2.2.2Z"/>
                <path class="cls-13" d="M183.8,87.4c-.2,0-.2.2-.2.2,0,0,0-.2-.2-.2.2,0,.2-.2.2-.2,0,0,0,.2.2.2Z"/>
                <path class="cls-13" d="M181.4,60.1c-.2,0-.2.2-.2.2,0,0,0-.2-.2-.2.2,0,.2-.2.2-.2,0,0,0,.2.2.2Z"/>
                <path class="cls-13" d="M179.2,45.2c-.2,0-.2.2-.2.2,0,0,0-.2-.2-.2.2,0,.2-.2.2-.2,0,0,0,.2.2.2Z"/>
                <path class="cls-13" d="M170.4,56.8c-.2,0-.2.2-.2.2,0,0,0-.2-.2-.2.2,0,.2-.2.2-.2,0,0,0,.2.2.2Z"/>
                <path class="cls-13" d="M185.4,51.9c-.2,0-.2.2-.2.2,0,0,0-.2-.2-.2.2,0,.2-.2.2-.2,0,0,0,.2.2.2Z"/>
                <path class="cls-13" d="M185.7,41.8c-.2,0-.2.2-.2.2,0,0,0-.2-.2-.2.2,0,.2-.2.2-.2,0,0,0,.2.2.2Z"/>
                <path class="cls-13" d="M182.1,35.5c-.2,0-.2.2-.2.2,0,0,0-.2-.2-.2.2,0,.2-.2.2-.2,0,0,0,.2.2.2Z"/>
                <path class="cls-13" d="M179.1,26.7c-.2,0-.2.2-.2.2,0,0,0-.2-.2-.2.2,0,.2-.2.2-.2,0,0,0,.2.2.2Z"/>
                <path class="cls-13" d="M185.9,11.1c-.2,0-.2.2-.2.2,0,0,0-.2-.2-.2.2,0,.2-.2.2-.2,0,0,0,.2.2.2Z"/>
                <path class="cls-13" d="M188.6,17.9c-.2,0-.2.2-.2.2,0,0,0-.2-.2-.2.2,0,.2-.2.2-.2,0,0,0,.2.2.2Z"/>
                <path class="cls-13" d="M193.6,24.2c-.2,0-.2.2-.2.2,0,0,0-.2-.2-.2.2,0,.2-.2.2-.2,0,0,0,.2.2.2Z"/>
                <path class="cls-13" d="M196.5,19c-.2,0-.2.2-.2.2,0,0,0-.2-.2-.2.2,0,.2-.2.2-.2,0,0,0,.2.2.2Z"/>
                <path class="cls-13" d="M177.1,16c-.2,0-.2.2-.2.2,0,0,0-.2-.2-.2.2,0,.2-.2.2-.2,0,0,0,.2.2.2Z"/>
                <path class="cls-13" d="M168.9,10.8c-.2,0-.2.2-.2.2,0,0,0-.2-.2-.2.2,0,.2-.2.2-.2,0,0,0,.2.2.2Z"/>
                <path class="cls-13" d="M209.4,65.7c-.2,0-.2.2-.2.2,0,0,0-.2-.2-.2.2,0,.2-.2.2-.2,0,0,0,.2.2.2Z"/>
                <path class="cls-13" d="M225.9,102.3c-.2,0-.2.2-.2.2,0,0,0-.2-.2-.2.2,0,.2-.2.2-.2,0,0,0,.2.2.2Z"/>
                <path class="cls-13" d="M208.9,127.7c-.2,0-.2.2-.2.2,0,0,0-.2-.2-.2.2,0,.2-.2.2-.2,0,0,0,.2.2.2Z"/>
                <path class="cls-13" d="M241.6,95c-.2,0-.2.2-.2.2,0,0,0-.2-.2-.2.2,0,.2-.2.2-.2,0,0,0,.2.2.2Z"/>
                <path class="cls-13" d="M215.5,87.1c-.2,0-.2.2-.2.2,0,0,0-.2-.2-.2.2,0,.2-.2.2-.2,0,0,0,.2.2.2Z"/>
                <path class="cls-13" d="M241.4,35.7c-.2,0-.2.2-.2.2,0,0,0-.2-.2-.2.2,0,.2-.2.2-.2,0,0,0,.2.2.2Z"/>
                <path class="cls-13" d="M217.2,118.4c-.2,0-.2.2-.2.2,0,0,0-.2-.2-.2.2,0,.2-.2.2-.2,0,0,0,.2.2.2Z"/>
                <path class="cls-13" d="M221.8,127.2c-.2,0-.2.2-.2.2,0,0,0-.2-.2-.2.2,0,.2-.2.2-.2,0,0,0,.2.2.2Z"/>
                <path class="cls-13" d="M226.8,134.2c-.2,0-.2.2-.2.2,0,0,0-.2-.2-.2.2,0,.2-.2.2-.2,0,0,0,.2.2.2Z"/>
                <path class="cls-13" d="M217.5,129.6c-.4,0-.4.4-.4.4,0,0,0-.4-.4-.4.4,0,.4-.4.4-.4,0,0,0,.4.4.4Z"/>
                <path class="cls-13" d="M202.2,118.4c-.4,0-.4.4-.4.4,0,0,0-.3-.4-.4.4,0,.4-.4.4-.4,0,0,0,.3.4.4Z"/>
                <path class="cls-13" d="M218,100.4c-.4,0-.4.4-.4.4,0,0,0-.3-.4-.4.4,0,.4-.4.4-.4,0,0,0,.3.4.4Z"/>
                <path class="cls-13" d="M227.2,76.3c-.4,0-.4.4-.4.4,0,0,0-.3-.4-.4.4,0,.4-.4.4-.4,0,0,0,.3.4.4Z"/>
                <path class="cls-13" d="M221.6,52.9c-.4,0-.4.4-.4.4,0,0,0-.3-.4-.4.4,0,.4-.4.4-.4,0,0,0,.3.4.4Z"/>
                <path class="cls-13" d="M235.7,29.5c-.4,0-.4.4-.4.4,0,0,0-.4-.4-.4.4,0,.4-.4.4-.4,0,0,0,.4.4.4Z"/>
                <path class="cls-13" d="M205.6,5.8c-.4,0-.4.4-.4.4,0,0,0-.3-.4-.4.4,0,.4-.4.4-.4,0,0,0,.3.4.4Z"/>
                <path class="cls-13" d="M243.3,22.1c-.4,0-.4.4-.4.4,0,0,0-.4-.4-.4.4,0,.4-.4.4-.4,0,0,0,.4.4.4Z"/>
                <path class="cls-13" d="M204.3,18.7c-.4,0-.4.4-.4.4,0,0,0-.4-.4-.4.4,0,.4-.4.4-.4,0,0,0,.4.4.4Z"/>
                <path class="cls-13" d="M200,39.2c-.4,0-.4.4-.4.4,0,0,0-.3-.4-.4.4,0,.4-.4.4-.4,0,0,0,.3.4.4Z"/>
                <path class="cls-13" d="M184.5,131c-.7.1-.8.8-.8.8,0,0,0-.7-.8-.8.7-.1.8-.8.8-.8,0,0,0,.7.8.8Z"/>
                <path class="cls-13" d="M171.8,79.3c-.7.1-.8.8-.8.8,0,0,0-.7-.8-.8.7-.1.8-.8.8-.8,0,0,0,.7.8.8Z"/>
                <path class="cls-13" d="M238.8,13.9c-.7.1-.8.8-.8.8,0,0,0-.7-.8-.8.7-.1.8-.8.8-.8,0,0,0,.7.8.8Z"/>
                <path class="cls-13" d="M244.5,63.3c-.7.1-.8.8-.8.8,0,0,0-.7-.8-.8.7-.1.8-.8.8-.8,0,0,0,.7.8.8Z"/>
                <path class="cls-13" d="M241.4,132c-.7.1-.8.8-.8.8,0,0,0-.7-.8-.8.7-.1.8-.8.8-.8,0,0,0,.7.8.8Z"/>
                <path class="cls-13" d="M171.4,107.8c-.7.1-.8.8-.8.8,0,0,0-.7-.8-.8.7-.1.8-.8.8-.8,0,0,0,.7.8.8Z"/>
                <path class="cls-13" d="M171,25.1c-.7.1-.8.8-.8.8,0,0,0-.7-.8-.8.7-.1.8-.8.8-.8,0,0,0,.7.8.8Z"/>
                <path class="cls-13" d="M179.6,4.7c-.7.1-.8.8-.8.8,0,0,0-.7-.8-.8.7-.1.8-.8.8-.8,0,0,0,.7.8.8Z"/>
                <path class="cls-13" d="M214.5,16.8c-.7.1-.8.8-.8.8,0,0,0-.7-.8-.8.7-.1.8-.8.8-.8,0,0,0,.7.8.8Z"/>
                <path class="cls-13" d="M215.2,39.6c-.7.1-.8.8-.8.8,0,0,0-.7-.8-.8.7-.1.8-.8.8-.8,0,0,0,.7.8.8Z"/>
                <path class="cls-13" d="M229.2,5c-.3,0-.4.4-.4.4,0,0,0-.3-.4-.4.3,0,.4-.4.4-.4,0,0,0,.3.4.4Z"/>
                <path class="cls-13" d="M217.4,28.4c-.3,0-.4.4-.4.4,0,0,0-.3-.4-.4.3,0,.4-.4.4-.4,0,0,0,.3.4.4Z"/>
                <path class="cls-13" d="M191.8,40.5c-.3,0-.4.4-.4.4,0,0,0-.3-.4-.4.3,0,.4-.4.4-.4,0,0,0,.3.4.4Z"/>
                <path class="cls-13" d="M204.3,28.7c-.3,0-.4.4-.4.4,0,0,0-.3-.4-.4.3,0,.4-.4.4-.4,0,0,0,.3.4.4Z"/>
                <path class="cls-13" d="M214.8,3.8c-.3,0-.4.4-.4.4,0,0,0-.3-.4-.4.3,0,.4-.4.4-.4,0,0,0,.3.4.4Z"/>
                <path class="cls-13" d="M198.9,6.2c-.3,0-.4.4-.4.4,0,0,0-.3-.4-.4.3,0,.4-.4.4-.4,0,0,0,.3.4.4Z"/>
                <path class="cls-13" d="M243.2,5.4c-.3,0-.4.4-.4.4,0,0,0-.3-.4-.4.3,0,.4-.4.4-.4,0,0,0,.3.4.4Z"/>
                <path class="cls-13" d="M173.4,70.1c-.3,0-.4.4-.4.4,0,0,0-.3-.4-.4.3,0,.4-.4.4-.4,0,0,0,.3.4.4Z"/>
                <path class="cls-13" d="M244.1,112.6c-.3,0-.4.4-.4.4,0,0,0-.3-.4-.4.3,0,.4-.4.4-.4,0,0,0,.3.4.4Z"/>
                <path class="cls-13" d="M171.4,93c-.4,0-.4.4-.4.4,0,0,0-.3-.4-.4.4,0,.4-.4.4-.4,0,0,0,.3.4.4Z"/>
                <path class="cls-13" d="M221.9,10.8c-.4,0-.4.4-.4.4,0,0,0-.4-.4-.4.4,0,.4-.4.4-.4,0,0,0,.4.4.4Z"/>
                <path class="cls-13" d="M238.8,46.7c-.4,0-.4.4-.4.4,0,0,0-.3-.4-.4.4,0,.4-.4.4-.4,0,0,0,.3.4.4Z"/>
                <path class="cls-13" d="M194.8,50.6c-.4,0-.4.4-.4.4,0,0,0-.3-.4-.4.4,0,.4-.4.4-.4,0,0,0,.3.4.4Z"/>
                <path class="cls-13" d="M188.2,47.9c-.4,0-.4.4-.4.4,0,0,0-.3-.4-.4.4,0,.4-.4.4-.4,0,0,0,.3.4.4Z"/>
              </g>
            </g>
          </g>
        </g>
      </g>
      <rect class="cls-14" x="-1.2" y="74" width="251.8" height="67.5"/>
      <rect class="cls-1" x="-1.2" y="-6.6" width="251.8" height="80.7"/>
      <g>
        <path class="cls-9" d="M-1.2,65.3l62.9,2.1,18.6-6.5,19.6,3.2,13-1.7,9.9,4,9.3.4c2.3,0,4.7.2,7,.3,1.6,0,3.8.5,5.2-.2,2.2-1.2,4.2-3,6.2-4.5,3.8-2.8,7.2-5,11.4-7,2.6-1.3,5.2-2.6,8.1-2.8,2.3-.2,4.5.3,6.8.1,1.8-.1,3.6-.7,5.4-1,3.5-.6,7.1-.3,10.7-.5,3.6-.3,7.5-1.3,9.8-4.1,1.3-1.5,2-3.6,3.3-5.1,2.1-2.5,5.4-3.3,8.1-5,2-1.2,3.5-2.9,5.3-4.3,3.3-2.6,11.1-7.9,15.6-6.7,3.3.9,7.1,5.2,9.5,7.5l5.9,6.5v33.9H-1.2v-8.7Z"/>
        <path class="cls-4" d="M80.3,61l-18.6,6.5,32.1-1.4-10.9,2.9h54.5l-4.8,2.1h13.3l-4.1-1.4,24.6-4.6,16.1-1c-3.9-.6-7.8-1.2-11.7-2,3.8-1.6,7.8-3.2,11.9-2.6.8.1,1.7.3,2.5.4,2.3,0,4.4-1,6.6-1.2,1.9-.1,3.8.5,5.8.5,2,0,3.9-.4,5.9-.6,3.4-.4,6.9-.2,10.3-.5,3-.2,6.1-1.7,8.7-3.2-1.8-.5-3.6-.9-5.4-1.2,7.5-3.8,15.9-5.9,24.3-6.1-2,1.8-4.2,3.2-6.7,4.2-1.2.5-2.4.9-3.1,2,5.7-.2,11.5-.3,17.2-.5-5.9,2.1-11.9,2.7-18,3.7-2.6.4-5.3,1.5-7.9,2.3-1.5.4-3,.9-4.4,1.4-1.2.4-3.2,1.6-4.4,1.6l24.7.4,11.7-2.3v-20.1s-1-1.1-1.5-1.6c-1.1-1.3-2.2-2.5-3.4-3.7-4.1-4.1-4.7-4.8-7.4-7-2.5-2-4.6-2.5-8.6-1-2.5.9-4.8,2.1-6.9,3.7-3.5,2.6-6.7,5.7-10.6,7.8-2.1,1.1-4.5,1.9-6.1,3.7-1.2,1.4-1.8,3.1-2.9,4.6-3.1,4.2-9.1,4.9-14.4,4.9-2.2,0-4.3,0-6.4.3-1.6.3-3.1.8-4.7.9-2,.2-4.1,0-6.1,0-9.5.3-16.7,6.9-24.1,12.1-.6.4-2.7,2.5-3.5,2.5,0,0-21.1-.9-21.1-.9l-9.9-4-13,1.7-19.6-3.2Z"/>
      </g>
      <g>
        <polygon class="cls-8" points="-1.2 46.6 4.2 43.9 9.6 30.7 15 28.6 33 31.1 39 51.6 59.7 60.3 63.9 75.4 67.4 76.2 67.4 77.7 70.7 79.3 18.1 79.3 29.1 82.2 -1.2 82.2 -1.2 46.6"/>
        <path class="cls-2" d="M17.4,33.6c.4-1.2.7-2.5.9-3.7-1.2-.5-2.5-.9-3.7-1.4,1.6,0,3.6.7,5.2.9,1.9.3,3.9.5,5.8.8,2.5.3,4.9.7,7.4,1l6,20.5,20.7,8.7,4.1,15.1,3.5.8v1.4l3.3,1.7c-.5-.3-1.8,0-2.3,0-1.3,0-2.3-.5-3.6-.6.4-1-.5-1.9-1.4-2.1-1-.2-2.1,0-2.9-.5-.7-.5-1.1-1.3-1.3-2.1-.6-1.7-1.2-3.4-1.8-5,0-.2-.2-.5,0-.7,0-.2.3-.4.5-.5.5-.4,1.1-.7,1.6-1.1-.7-1.7-1.3-3.4-2-5.1-.2-.5-.4-1-.8-1.4-.4-.4-1-.7-1.6-.9-5.2-1.9-10.7-3.2-16.2-4-1-.1-2.1-.3-3.1-.7-.9-.4-1.7-1-2.5-1.6-1.5-1.1-3-2-4.6-3-1.1-.7-1-.8,0-1.5.8-.6,1.7-1.2,2.5-1.8.1,0,.3-.2.3-.3,0-.1,0-.2,0-.3-.5-1.8-1.8-3.3-3.2-4.5-2.2-2.1-3.6-4.2-5.2-6.7-.3-.4-.5-.8-.9-1.1-1.3-1.1-3.1-.7-4.7-.2Z"/>
        <polygon class="cls-18" points="-1.2 46.6 4.2 43.9 9.6 30.7 15 28.6 17.3 30.2 15.3 38 20.3 35 22 44.9 26 46.6 17.8 50 -1.4 48.7 42.9 60.9 38.2 62.5 34.7 63.6 32 67.5 26.6 58.4 9.7 52.3 -1.4 48.7 -1.2 46.6"/>
        <polygon class="cls-6" points="-1.4 48.7 13.9 52.3 17.7 53.9 26.6 58.4 32 67.5 34.7 63.6 42.9 60.9 45.9 64.2 48.6 64.2 51 72.3 52.3 76.5 55.4 76.5 56.2 79 60.3 79 15.8 78.5 20.1 81 18.2 81 -1.2 81 -1.4 48.7"/>
        <path class="cls-18" d="M-1.4,47.7c1.5.2,6.6,2.1,11.4,2.9,1.8.3,7,1.6,7,1.6,0,0,3.6,2.5,3.7,2.6-.3,0-1.6-.3-3.1-.8-1.7-.6-3.6-1.6-3.8-1.6-.3,0-2.4,1.4-2.9,2.1-.3.4-.5,1-.7,1.5-1.3,3.4-7.7,5.7-6.5,8.9.2.6,1.2,1.3,1.6,1.7,1.3,1.4,2.5,2.7,3.8,4.1,1.4,1.5,2.7,3,4.1,4.6.7.8,2.2,2.1,2.4,3.2-2.1-1.1-3.8-2.9-6.2-3.7-.8-.3-1.6-.4-2.3-.9-1.1-.7-1.7-2.1-2.6-3-1.7-1.8-3.7-1.6-5.9-1.4,0-.4,0-.8,0-1.3,0-6.8,0-13.6,0-20.4Z"/>
      </g>
      <g>
        <polygon class="cls-18" points="166.4 79.6 175.4 75.9 178.8 68.8 184.4 67.5 207.7 52.3 217 55.4 217 61.3 222.6 70.9 229.1 67.5 236.9 71.6 241.6 76.2 250.6 80.9 208.5 80.9 203.5 80.2 166.4 79.6"/>
        <path class="cls-7" d="M208.5,80.9c1.2-.6,2.8-1.2,4-1.8.2,0,.3-.2.4-.3,0-.2,0-.4-.2-.4,1.2-1.1,2.5-2,3.9-2.8-1.4,0-2.8.2-4.1.5.2,0,.7-.4.8-.6.3-.2.6-.4.9-.6.6-.4,1.2-.7,1.8-1.1,1.3-.7,2.6-1.4,4-1.9,1.5-.5,3.1-1.2,4.5-2,1.5-.8,3-1.5,4.4-2.3,0,0,.1,0,.2,0,0,0,.2,0,.2,0,.4.2.7.4,1.1.6-.2,0-.5.3-.6.4-.3.2-.5.4-.8.6-.5.4-1.1.9-1.6,1.4-1,1-1.9,2-2.8,3.1-.4.5-.8,1.1-1.3,1.4-.5.3-1,.5-1.6.7-4.4,1.5-9,3.2-13.3,5.1Z"/>
        <path class="cls-7" d="M166.3,79.7s9-3.7,9-3.7l3.4-7.1,5.6-1.3c3.4-2.2,6.8-4.4,10.2-6.6,4-2.6,8.1-5.2,12.1-7.9.3-.2.7-.5,1-.5.4,0,.9,0,1.3.2,2.1.7,4.1,1.4,6.1,2.3-1.2-.5-2.7.2-3.8.7-1.1.6-2.2,1.3-3.2,2.1-2,1.5-4.1,3.3-6.6,4.1-1.3.4-2.8.5-4.1,1.1-1,.4-1.9,1.2-2.7,1.9-2.6,2.1-5.1,4.3-7.7,6.4,1.5-.2,3,.1,4.3.9-1.8,1.5-3.7,2.9-5.5,4.4.6.8,1.2,1.6,1.7,2.5-1.8,1.4-4.7,1-6.8,1h-7.5c-1.8,0-5.3-.7-7,0Z"/>
        <path class="cls-7" d="M206,76.3c0,0,.2-.2.3-.2.1,0,.3,0,.4,0,.9,0,1.7,0,2.6,0,0,.1,0,.2-.1.3.6,0,1.1,0,1.7.1-1.1.2-2.1.4-3.1.6-.9.2-2,.7-3,.7.4-.5.9-1,1.3-1.5Z"/>
      </g>
      <g>
        <path class="cls-17" d="M54.3-.6c0,.2-.2.3-.3.3s-.3-.2-.3-.3.2-.3.3-.3.3.2.3.3Z"/>
        <circle class="cls-17" cx="56.7" cy="2.1" r=".2"/>
        <path class="cls-17" d="M60.7-.4c0,0,0,.2-.2.2s-.2,0-.2-.2,0-.2.2-.2.2,0,.2.2Z"/>
        <path class="cls-17" d="M63.2,6c0,.1-.1.2-.2.2s-.2-.1-.2-.2.1-.2.2-.2.2.1.2.2Z"/>
        <circle class="cls-17" cx="51.1" cy="5.9" r=".1"/>
        <path class="cls-17" d="M56.2,8.5c0,0,0,.1-.1.1s-.1,0-.1-.1,0-.1.1-.1.1,0,.1.1Z"/>
        <path class="cls-17" d="M37.7-1.3c0,0,0,.2-.2.2s-.2,0-.2-.2,0-.2.2-.2.2,0,.2.2Z"/>
        <circle class="cls-17" cx="65.3" cy="-2.7" r=".2"/>
        <circle class="cls-17" cx="46" cy="47.9" r=".1"/>
        <path class="cls-17" d="M50,47.2c0,0,0,.1-.1.1s-.1,0-.1-.1,0-.1.1-.1.1,0,.1.1Z"/>
        <circle class="cls-17" cx="47.2" cy="44.8" r=".1"/>
        <path class="cls-17" d="M41.6,46.2c0,0,0,.1-.1.1s-.1,0-.1-.1,0-.1.1-.1.1,0,.1.1Z"/>
        <path class="cls-17" d="M47,50.2c0,0,0,.1-.1.1s-.1,0-.1-.1,0-.1.1-.1.1,0,.1.1Z"/>
        <path class="cls-17" d="M53.9,49.5c0,0,0,.1-.1.1s-.1,0-.1-.1,0-.1.1-.1.1,0,.1.1Z"/>
        <path class="cls-17" d="M53.9,45c0,0,0,.1-.1.1s-.1,0-.1-.1,0-.1.1-.1.1,0,.1.1Z"/>
        <path class="cls-17" d="M40.3,47.2c0,0,0,.1-.1.1s-.1,0-.1-.1,0-.1.1-.1.1,0,.1.1Z"/>
        <path class="cls-17" d="M70.3,50.7c0,0,0,.1-.1.1s-.1,0-.1-.1,0-.1.1-.1.1,0,.1.1Z"/>
        <path class="cls-17" d="M62.4,56.1s0,0,0,0,0,0,0,0,0,0,0,0,0,0,0,0Z"/>
        <path class="cls-17" d="M65.7,55.9c0,0,0,.2-.2.2s-.2,0-.2-.2,0-.2.2-.2.2,0,.2.2Z"/>
        <path class="cls-17" d="M64.8,52.3c0,0,0,.1-.1.1s-.1,0-.1-.1,0-.1.1-.1.1,0,.1.1Z"/>
        <path class="cls-17" d="M72.4,50.7c0,0,0,.1-.1.1s-.1,0-.1-.1,0-.1.1-.1.1,0,.1.1Z"/>
        <path class="cls-17" d="M68.7,46.4c0,.1,0,.2-.2.2s-.2,0-.2-.2,0-.2.2-.2.2,0,.2.2Z"/>
        <circle class="cls-17" cx="76.2" cy="48.7" r="0"/>
        <path class="cls-17" d="M77.4,56.9s0,0,0,0,0,0,0,0,0,0,0,0,0,0,0,0Z"/>
        <path class="cls-17" d="M74.7,54.8s0,0,0,0,0,0,0,0,0,0,0,0,0,0,0,0Z"/>
        <path class="cls-17" d="M73.3,58s0,0,0,0,0,0,0,0,0,0,0,0,0,0,0,0Z"/>
        <path class="cls-17" d="M69.7,60.2s0,0,0,0,0,0,0,0,0,0,0,0,0,0,0,0Z"/>
        <path class="cls-17" d="M63,58.2s0,0,0,0,0,0,0,0,0,0,0,0,0,0,0,0Z"/>
        <path class="cls-17" d="M52.9,53s0,0,0,0,0,0,0,0,0,0,0,0,0,0,0,0Z"/>
        <path class="cls-17" d="M113.5,46.2s0,0,0,0,0,0,0,0,0,0,0,0,0,0,0,0Z"/>
        <path class="cls-17" d="M103.4,58s0,0,0,0,0,0,0,0,0,0,0,0,0,0,0,0Z"/>
        <path class="cls-17" d="M91.8,55.8s0,0,0,0,0,0,0,0,0,0,0,0,0,0,0,0Z"/>
        <path class="cls-17" d="M88,52.2s0,0,0,0,0,0,0,0,0,0,0,0,0,0,0,0Z"/>
        <path class="cls-17" d="M108.9,54.9s0,0,0,0,0,0,0,0,0,0,0,0,0,0,0,0Z"/>
        <path class="cls-17" d="M117.6,38.7s0,0,0,0,0,0,0,0,0,0,0,0,0,0,0,0Z"/>
        <path class="cls-17" d="M119.7,9.7s0,0,0,0,0,0,0,0,0,0,0,0,0,0,0,0Z"/>
        <path class="cls-17" d="M118.3,3.9s0,0,0,0,0,0,0,0,0,0,0,0,0,0,0,0Z"/>
        <path class="cls-17" d="M119.8,6.4s0,0,0,0,0,0,0,0,0,0,0,0,0,0,0,0Z"/>
        <path class="cls-17" d="M120,5.3s0,0,0,0,0,0,0,0,0,0,0,0,0,0,0,0Z"/>
        <path class="cls-17" d="M111.5-.1s0,0,0,0,0,0,0,0,0,0,0,0,0,0,0,0Z"/>
        <path class="cls-17" d="M111.7-1.8s0,0,0,0,0,0,0,0,0,0,0,0,0,0,0,0Z"/>
        <path class="cls-17" d="M104.9-2s0,0,0,0,0,0,0,0,0,0,0,0,0,0,0,0Z"/>
        <path class="cls-17" d="M119.7-2.8s0,0,0,0,0,0,0,0,0,0,0,0,0,0,0,0Z"/>
        <path class="cls-17" d="M126.7,8.4s0,0,0,0,0,0,0,0,0,0,0,0,0,0,0,0Z"/>
        <path class="cls-17" d="M128.8,17.1s0,0,0,0,0,0,0,0,0,0,0,0,0,0,0,0Z"/>
        <path class="cls-17" d="M121.9,19.7s0,0,0,0,0,0,0,0,0,0,0,0,0,0,0,0Z"/>
        <path class="cls-17" d="M150.7,43.4s0,0,0,0,0,0,0,0,0,0,0,0,0,0,0,0Z"/>
        <path class="cls-17" d="M142.7,39.6s0,0,0,0,0,0,0,0,0,0,0,0,0,0,0,0Z"/>
        <path class="cls-17" d="M125.1,37.9c0,.1,0,.2-.2.2s-.2,0-.2-.2,0-.2.2-.2.2,0,.2.2Z"/>
        <path class="cls-17" d="M134.7,38.8c0,.1,0,.2-.2.2s-.2,0-.2-.2,0-.2.2-.2.2,0,.2.2Z"/>
        <path class="cls-17" d="M139.6,36c0,.1,0,.2-.2.2s-.2,0-.2-.2,0-.2.2-.2.2,0,.2.2Z"/>
        <path class="cls-17" d="M147.2,36c0,.1,0,.2-.2.2s-.2,0-.2-.2,0-.2.2-.2.2,0,.2.2Z"/>
        <path class="cls-17" d="M114.5,58.9c0,.1,0,.2-.2.2s-.2,0-.2-.2,0-.2.2-.2.2,0,.2.2Z"/>
        <path class="cls-17" d="M114.9,57.1c0,.1,0,.2-.2.2s-.2,0-.2-.2,0-.2.2-.2.2,0,.2.2Z"/>
        <path class="cls-17" d="M113.3,57.8c0,.1,0,.2-.2.2s-.2,0-.2-.2,0-.2.2-.2.2,0,.2.2Z"/>
        <path class="cls-17" d="M126.9,57.4c0,.1,0,.2-.2.2s-.2,0-.2-.2,0-.2.2-.2.2,0,.2.2Z"/>
        <path class="cls-17" d="M131.8,56.4c0,.1,0,.2-.2.2s-.2,0-.2-.2,0-.2.2-.2.2,0,.2.2Z"/>
        <path class="cls-17" d="M131.7,59.6c0,.1,0,.2-.2.2s-.2,0-.2-.2,0-.2.2-.2.2,0,.2.2Z"/>
        <path class="cls-17" d="M140.5,56.4c0,.1,0,.2-.2.2s-.2,0-.2-.2,0-.2.2-.2.2,0,.2.2Z"/>
        <path class="cls-17" d="M170.1,40.2c0,.1,0,.2-.2.2s-.2,0-.2-.2,0-.2.2-.2.2,0,.2.2Z"/>
        <path class="cls-17" d="M162.9,49.1c0,.1,0,.2-.2.2s-.2,0-.2-.2,0-.2.2-.2.2,0,.2.2Z"/>
        <path class="cls-17" d="M222.5,8.5c0,.1,0,.2-.2.2s-.2,0-.2-.2,0-.2.2-.2.2,0,.2.2Z"/>
        <path class="cls-17" d="M208.9,5.4c0,.1,0,.2-.2.2s-.2,0-.2-.2,0-.2.2-.2.2,0,.2.2Z"/>
        <path class="cls-17" d="M212.1-.2c0,.1,0,.2-.2.2s-.2,0-.2-.2,0-.2.2-.2.2,0,.2.2Z"/>
        <path class="cls-17" d="M203-.2c0,.1,0,.2-.2.2s-.2,0-.2-.2,0-.2.2-.2.2,0,.2.2Z"/>
        <path class="cls-17" d="M223.8-.4c0,.1,0,.2-.2.2s-.2,0-.2-.2,0-.2.2-.2.2,0,.2.2Z"/>
        <path class="cls-17" d="M224.2,21.9c0,.1,0,.2-.2.2s-.2,0-.2-.2,0-.2.2-.2.2,0,.2.2Z"/>
        <path class="cls-17" d="M237,12.2c0,.1,0,.2-.2.2s-.2,0-.2-.2,0-.2.2-.2.2,0,.2.2Z"/>
        <path class="cls-17" d="M201.1,7.4c0,.1-.1.3-.3.3s-.3-.1-.3-.3.1-.3.3-.3.3.1.3.3Z"/>
        <path class="cls-17" d="M231,3.3c0,.1-.1.3-.3.3s-.3-.1-.3-.3.1-.3.3-.3.3.1.3.3Z"/>
        <circle class="cls-17" cx="233.1" cy="-1" r=".3"/>
        <path class="cls-17" d="M239.2-1.4c0,.1-.1.3-.3.3s-.3-.1-.3-.3.1-.3.3-.3.3.1.3.3Z"/>
        <circle class="cls-17" cx="154.8" cy="3.6" r=".3"/>
        <path class="cls-17" d="M148.7-3.6c0,.1-.1.3-.3.3s-.3-.1-.3-.3.1-.3.3-.3.3.1.3.3Z"/>
        <circle class="cls-17" cx="175.5" cy="41.6" r=".1"/>
        <path class="cls-17" d="M178.7,43.6c0,0,0,.1-.1.1s-.1,0-.1-.1,0-.1.1-.1.1,0,.1.1Z"/>
        <path class="cls-17" d="M170.3,43.2c0,0,0,.1-.1.1s-.1,0-.1-.1,0-.1.1-.1.1,0,.1.1Z"/>
        <path class="cls-17" d="M135.3,8.5c0,0,0,.1-.1.1s-.1,0-.1-.1,0-.1.1-.1.1,0,.1.1Z"/>
        <path class="cls-17" d="M135.6,4.8c0,0,0,.1-.1.1s-.1,0-.1-.1,0-.1.1-.1.1,0,.1.1Z"/>
        <path class="cls-17" d="M159.5,40.8c0,0,0,.1-.1.1s-.1,0-.1-.1,0-.1.1-.1.1,0,.1.1Z"/>
        <path class="cls-17" d="M189.6,38.8c0,0,0,.1-.1.1s-.1,0-.1-.1,0-.1.1-.1.1,0,.1.1Z"/>
        <path class="cls-17" d="M192.5,44.5c0,0,0,.1-.1.1s-.1,0-.1-.1,0-.1.1-.1.1,0,.1.1Z"/>
        <path class="cls-17" d="M189.6,42.7c0,0,0,.1-.1.1s-.1,0-.1-.1,0-.1.1-.1.1,0,.1.1Z"/>
        <path class="cls-17" d="M198.6,39.8c0,0,0,.1-.1.1s-.1,0-.1-.1,0-.1.1-.1.1,0,.1.1Z"/>
        <path class="cls-17" d="M200.8,38.2c0,0,0,.1-.1.1s-.1,0-.1-.1,0-.1.1-.1.1,0,.1.1Z"/>
        <path class="cls-17" d="M196.1,38.1c0,0,0,.1-.1.1s-.1,0-.1-.1,0-.1.1-.1.1,0,.1.1Z"/>
        <path class="cls-17" d="M194.8,36.1c0,0,0,.1-.1.1s-.1,0-.1-.1,0-.1.1-.1.1,0,.1.1Z"/>
        <path class="cls-17" d="M204.8,35.9c0,0,0,.1-.1.1s-.1,0-.1-.1,0-.1.1-.1.1,0,.1.1Z"/>
        <path class="cls-17" d="M202.8,46.2c0,0,0,.1-.1.1s-.1,0-.1-.1,0-.1.1-.1.1,0,.1.1Z"/>
        <path class="cls-17" d="M162.7,6.4c0,0,0,.1-.1.1s-.1,0-.1-.1,0-.1.1-.1.1,0,.1.1Z"/>
        <path class="cls-17" d="M161.6,4c0,0,0,.1-.1.1s-.1,0-.1-.1,0-.1.1-.1.1,0,.1.1Z"/>
        <path class="cls-17" d="M163.9,3.4c0,0,0,.1-.1.1s-.1,0-.1-.1,0-.1.1-.1.1,0,.1.1Z"/>
        <path class="cls-17" d="M165.4,2.3c0,0,0,.1-.1.1s-.1,0-.1-.1,0-.1.1-.1.1,0,.1.1Z"/>
        <path class="cls-17" d="M156.5-.3c0,0,0,.1-.1.1s-.1,0-.1-.1,0-.1.1-.1.1,0,.1.1Z"/>
        <path class="cls-17" d="M174.1-1.8c0,0,0,.1-.1.1s-.1,0-.1-.1,0-.1.1-.1.1,0,.1.1Z"/>
        <path class="cls-17" d="M184.6-2c0,0,0,.1-.1.1s-.1,0-.1-.1,0-.1.1-.1.1,0,.1.1Z"/>
        <path class="cls-17" d="M193.7,0c0,0,0,.1-.1.1s-.1,0-.1-.1,0-.1.1-.1.1,0,.1.1Z"/>
        <path class="cls-17" d="M192.5-3.8c0,0,0,.1-.1.1s-.1,0-.1-.1,0-.1.1-.1.1,0,.1.1Z"/>
        <path class="cls-17" d="M139.5.7c0,0,0,.1-.1.1s-.1,0-.1-.1,0-.1.1-.1.1,0,.1.1Z"/>
        <path class="cls-17" d="M147.4,8.5c0,0,0,.1-.1.1s-.1,0-.1-.1,0-.1.1-.1.1,0,.1.1Z"/>
        <path class="cls-17" d="M215.2,16.5c0,0,0,.1-.1.1s-.1,0-.1-.1,0-.1.1-.1.1,0,.1.1Z"/>
        <path class="cls-17" d="M224,13.5c0,0,0,.1-.1.1s-.1,0-.1-.1,0-.1.1-.1.1,0,.1.1Z"/>
        <path class="cls-17" d="M221.5,13c0,0,0,.1-.1.1s-.1,0-.1-.1,0-.1.1-.1.1,0,.1.1Z"/>
        <path class="cls-17" d="M212.3,11c0,0,0,.1-.1.1s-.1,0-.1-.1,0-.1.1-.1.1,0,.1.1Z"/>
        <path class="cls-17" d="M249.8,18c0,0,0,.1-.1.1s-.1,0-.1-.1,0-.1.1-.1.1,0,.1.1Z"/>
        <path class="cls-17" d="M248.8,16.7c0,0,0,.1-.1.1s-.1,0-.1-.1,0-.1.1-.1.1,0,.1.1Z"/>
        <path class="cls-17" d="M247.2,19.3c0,0,0,.1-.1.1s-.1,0-.1-.1,0-.1.1-.1.1,0,.1.1Z"/>
        <path class="cls-17" d="M245.1,18.3c0,0,0,.1-.1.1s-.1,0-.1-.1,0-.1.1-.1.1,0,.1.1Z"/>
        <path class="cls-17" d="M239.4,19.5c0,0,0,.1-.1.1s-.1,0-.1-.1,0-.1.1-.1.1,0,.1.1Z"/>
        <path class="cls-17" d="M242.9,13.6c0,0,0,.1-.1.1s-.1,0-.1-.1,0-.1.1-.1.1,0,.1.1Z"/>
        <path class="cls-17" d="M243.6,11c0,0,0,.1-.1.1s-.1,0-.1-.1,0-.1.1-.1.1,0,.1.1Z"/>
        <path class="cls-17" d="M247.9,8.8c0,0,0,.1-.1.1s-.1,0-.1-.1,0-.1.1-.1.1,0,.1.1Z"/>
        <path class="cls-17" d="M246.6,27.1c0,0,0,.1-.1.1s-.1,0-.1-.1,0-.1.1-.1.1,0,.1.1Z"/>
        <path class="cls-17" d="M242.9,26.7c0,0,0,.1-.1.1s-.1,0-.1-.1,0-.1.1-.1.1,0,.1.1Z"/>
        <path class="cls-17" d="M248.8,31.6c0,0,0,.1-.1.1s-.1,0-.1-.1,0-.1.1-.1.1,0,.1.1Z"/>
        <path class="cls-17" d="M250,.7c0,0,0,.1-.1.1s-.1,0-.1-.1,0-.1.1-.1.1,0,.1.1Z"/>
        <path class="cls-17" d="M3.3-.8c0,0,0,.1-.1.1s-.1,0-.1-.1,0-.1.1-.1.1,0,.1.1Z"/>
        <path class="cls-17" d="M4.7-2c0,0,0,.1-.1.1s-.1,0-.1-.1,0-.1.1-.1.1,0,.1.1Z"/>
        <path class="cls-17" d="M2.8-2.7c0,0,0,.1-.1.1s-.1,0-.1-.1,0-.1.1-.1.1,0,.1.1Z"/>
        <path class="cls-17" d="M13.8-4.3c0,0,0,.1-.1.1s-.1,0-.1-.1,0-.1.1-.1.1,0,.1.1Z"/>
        <path class="cls-17" d="M20.2-2.7c0,0,0,.1-.1.1s-.1,0-.1-.1,0-.1.1-.1.1,0,.1.1Z"/>
        <path class="cls-17" d="M21-4.1c0,0,0,.1-.1.1s-.1,0-.1-.1,0-.1.1-.1.1,0,.1.1Z"/>
        <path class="cls-17" d="M28.6,1.4c0,0,0,.1-.1.1s-.1,0-.1-.1,0-.1.1-.1.1,0,.1.1Z"/>
        <path class="cls-17" d="M50.2-5.1c0,0,0,.1-.1.1s-.1,0-.1-.1,0-.1.1-.1.1,0,.1.1Z"/>
        <path class="cls-17" d="M43.8,9.8c0,0,0,.1-.1.1s-.1,0-.1-.1,0-.1.1-.1.1,0,.1.1Z"/>
        <path class="cls-17" d="M62.9,18c0,0,0,.1-.1.1s-.1,0-.1-.1,0-.1.1-.1.1,0,.1.1Z"/>
        <path class="cls-17" d="M67,15.9c0,0,0,.1-.1.1s-.1,0-.1-.1,0-.1.1-.1.1,0,.1.1Z"/>
        <path class="cls-17" d="M72.6,1.6c0,0,0,.1-.1.1s-.1,0-.1-.1,0-.1.1-.1.1,0,.1.1Z"/>
        <path class="cls-17" d="M81.8.7c0,0,0,.1-.1.1s-.1,0-.1-.1,0-.1.1-.1.1,0,.1.1Z"/>
      </g>
      <g class="cls-5">
        <polygon class="cls-11" points="91.5 78.7 71.7 79.5 104 85.6 98.4 86 161.3 92 128.1 94.9 157.4 94.9 91.5 98.5 206 107.7 174.9 112.5 249.9 120.3 249.9 98.5 172.2 92 185.5 88.7 157.4 84.7 171.3 83.2 128.8 80.9 158.1 79.2 91.5 78.7"/>
        <polygon class="cls-12" points="249.9 77.6 249.9 74.2 64.9 74.2 108 77.6 158.1 79.2 173.9 76.7 249.9 77.6"/>
      </g>
      <polygon class="cls-3" points="161.2 80.2 198.7 85 190.2 86.9 249.9 89.3 249.9 81.4 205.6 81.4 200.3 80.7 161.2 80.2"/>
    </g>
  </g>
</svg>