<?xml version="1.0" encoding="UTF-8"?>
<svg xmlns="http://www.w3.org/2000/svg" version="1.1" viewBox="0 0 250 160">
  <defs>
    <style>
      .cls-1 {
        mix-blend-mode: multiply;
        opacity: .1;
      }

      .cls-1, .cls-2 {
        fill: #2b3d56;
      }

      .cls-3 {
        isolation: isolate;
      }

      .cls-4 {
        fill: #fff;
        mix-blend-mode: soft-light;
        opacity: 0;
      }
    </style>
  </defs>
  <!-- Generator: Adobe Illustrator 28.7.1, SVG Export Plug-In . SVG Version: 1.2.0 Build 142)  -->
  <g class="cls-3">
    <g id="Layer_1">
      <g>
        <path class="cls-2" d="M.1,39.5c0-2.3,0-4.7,0-7.1,0-.6,0-1.4.7-1.6,0,0,.2,0,.3-.1.1,0,.1-.2.2-.4,0-.4.2-.7.3-1.1.8-2.2,2.4-3,4.1-4.4,1.5-1.3,3.1-2.2,5.1-2.6,3.8-.9,7.4-1.5,10.8,1,1.6,1.2,2.5,2.8,3.8,4.3,1.5,1.8,2.2,1.4,4.5.3,2.6-1.2,5.9-1,8.3.6,2.6,1.7,4,5.2,4.2,8.1,3.6-2.2,8.6-1.8,11.9.8,3.3,2.6,4.7,7.4,3.5,11.4,2.3-.7,5-.1,6.7,1.6,1.7,1.7,2.3,4.4,1.5,6.7.2-.6,10.5,3,11.5,3.2,5.4,1.1,10.9,1.9,16.4,2.3-7.8.6-15.5.9-23.3,1,3.1.5,6.2,1,9.3,1.5-26.6,1.1-53.1.3-79.7.5,0-5,0-10,0-15,0-3.7,0-7.5,0-11.2Z"/>
        <path class="cls-4" d="M.2,39.5c0-.6,0-1.2-.1-1.8-.1-1.8-.1-3.6,0-5.4,0-.2,0-.4.1-.6.3-.7,1-1,1.2-1.8.8-2.1,2.2-3.5,4-4.8,1.2-.9,2.2-1.7,3.7-2.3,3.6-1.4,8.3-1.4,11.2,1.4,1.8,1.7,2.9,4,3.8,6.3,1.3-.1,2.7.4,3.6,1.3,2.6-2.1,6.5-2.2,9.3-.5,3,1.8,4.4,5,4.6,8.3,1-.3,1.7-1.3,2.9-1.6,1.2-.4,2.5-.3,3.8,0,5.5,1.3,9,8,7,13.3,2-1.2,4.7-1.3,6.7,0,2,1.2,3.3,3.6,3.1,6,0-1.4,5.5,1,5.9,1.2,2,1.1,4,1.5,6.3,2,5.4,1.1,10.9,1.9,16.4,2.3-1.8-.1-3.8.3-5.5.4-4.4.3-8.6,0-12.9-.3-1.2,0-2.5-.2-3.7-.7-.4-.2-.8-.5-1.3-.6-1.4-.4-2.9.5-4.4.4-.2,0-.5,0-.7-.2-.3-.2-.5-.6-.6-.9-1.2-2.4-4.4-3.5-6.8-2.3-.6.3-1.3.7-1.9.4-.3-.1-.5-.4-.7-.6-1-1-2.7-.6-4.1-.1.9-1.2.9-3.1-.1-4.2-1-1.1-2.8-1.5-4.1-.7-1.1-1.8-.4-4.1-.8-6.1-.4-2.1-1.9-4-3.9-4.7-2.4-.9-3.8.5-5.9.7-.4-1.9-.5-3.6-2-5.2-1.4-1.6-3.4-2.5-5.4-3.1-3.4-.9-7.2-.8-10.1,1.2-.4.2-.7.5-1.1.5-.4,0-.7-.3-1-.5-2.7-2-6.4-2.5-9.6-1.3-3.2,1.2-5.5,3.9-6.4,7.2-.1-.9-.2-1.6-.3-2.4Z"/>
        <path class="cls-2" d="M113.2,56.4c0,0,130.7-1.4,130.7-1.4-11.5-2.2-23-5.2-34.5-6.9,2-4.1.4-9.6-3.4-12-3.9-2.4-9.5-1.4-12.3,2.2-1.3-2.2-.7-4.5-1.9-6.8-1.4-2.5-4.2-4.4-6.8-5.2-4.5-1.5-9.7-1.1-14,1-2.3,1.2-3.6,3.1-5.6,4.5-2.1,1.5-2.9.6-5.5,1.4-1.6.5-3,1.9-3.3,3.6-2.2-2.3-5.6-3-8.7-2.4-3.1.7-5.7,2.6-7.7,5.1-2.5,3-1.7,5.7-2.9,8.8-.9,2.2-2.2,2.2-4.6,3.1-6.3,2.2-12.7,4.9-19.5,5Z"/>
        <path class="cls-4" d="M113.2,56.4c5.2,0,10.2,0,15.2-1.4-.2-.2-.4-.4-.5-.6,3.2-.5,6.4-1,9.7-1.4.3,0,.6,0,.8-.3.2-.1.3-.4.4-.6,1.3-2.7,2.5-5.8,4.8-7.8,3.4-3,10.5-4.6,14.7-2.7.1-2,1.2-3.9,2.9-5.1,1.7-1.1,3.8-1.5,5.8-.9.2,0,.5.2.7.1.2,0,.4-.2.6-.4,2.9-2.9,6.8-4.7,10.9-5,3.9-.3,8.8.3,11,4,1.4,2.4,1.8,5.1,2.3,7.8,1.5-2.1,3.8-3.7,6.3-4.2.9-.2,1.8-.3,2.6-.1,2.3.3,4.2,2.1,5.1,4.2,1.2,2.7.2,4.8,0,7.6,2.6-.2,5.3,0,7.9.4,1.9.2,3.8.4,5.7.6-.8-.8-2-1.1-3.2-1.3-2.7-.5-5.4-.9-8.1-1.2,1,.1,1.5-2.9,1.5-3.4,0-1.5-.3-3-1-4.3-1.2-2.4-3.6-4.5-6.2-5.2-2.9-.7-6.1.2-8.3,2.2-.5.5-1,1.1-1.7,1.4.3-.2-.6-3.8-.7-4.2-.4-1.5-1-2.8-1.9-4.1-1.3-1.9-3.6-3.3-5.8-4-4.5-1.5-9.7-1.1-14,1-2.3,1.2-3.6,3.1-5.6,4.5-2.1,1.5-2.9.6-5.5,1.4-1.6.5-3,1.9-3.3,3.6-2.2-2.3-5.6-3-8.7-2.4-3.1.7-5.7,2.6-7.7,5.1-2.5,3-1.7,5.7-2.9,8.8-.9,2.2-2.2,2.2-4.6,3.1-6.3,2.2-12.7,4.9-19.5,5Z"/>
        <path class="cls-2" d="M97,73.8l18.1-2.6s.8-2.8,6.9-2.6c0,0,.8-4.4,6.9-4.2,6.1.2,7.1,5,7.1,5,0,0,2.2-2.2,4.3-1.1,2,1.1,1.4,4,1.4,4l10.3,1.5h-55Z"/>
        <path class="cls-1" d="M103.7,73.3c3.6-.5,7.3-.9,10.9-1,.2,0,.5,0,.7-.1.3-.1.4-.4.6-.6,1.4-1.6,3.7-1.8,5.8-1.7.4,0,.8,0,1.1-.1.2-.1.4-.3.5-.4,1.5-1.5,3.6-2.4,5.8-2.4,1.3,0,2.6.5,3.6,1.2,1.1.8,1.8,2,2.9,2.7.6-1.1,2-1.6,3.2-1.2,1.2.5,1.8,1.8,1.7,3,.4.1.8,0,1.2,0,.6,0,1.1.2,1.6.5.1,0,.3.2.4.2.1,0,.3,0,.5,0,.8,0,1.6.2,2.3.4-3.2.1-6.3,0-9.5,0h-21.3c-2.4,0-4.8-.1-7.1,0-1.3,0-2.5.1-3.8.1-.6,0-1.3,0-1.9,0-.5,0-1.2-.2-1.6-.1.8-.1,1.6-.3,2.4-.4Z"/>
      </g>
    </g>
  </g>
</svg>